<svg width="34" height="34" viewBox="0 0 34 34" fill="none" xmlns="http://www.w3.org/2000/svg">
<path d="M16 17.3185C16 18.0407 16.5854 18.6262 17.3077 18.6262C18.0299 18.6262 18.6154 18.0407 18.6154 17.3185C18.6154 16.5963 18.0299 16.0108 17.3077 16.0108C16.5854 16.0108 16 16.5963 16 17.3185Z" fill="#898989" stroke="#898989" stroke-width="1.83461"/>
<path d="M16 8.30769C16 9.02991 16.5854 9.61538 17.3077 9.61538C18.0299 9.61538 18.6154 9.02991 18.6154 8.30769C18.6154 7.58547 18.0299 7 17.3077 7C16.5854 7 16 7.58547 16 8.30769Z" fill="#898989" stroke="#898989" stroke-width="1.83461"/>
<path d="M16 26.4724C16 27.1946 16.5854 27.7801 17.3077 27.7801C18.0299 27.7801 18.6154 27.1946 18.6154 26.4724C18.6154 25.7501 18.0299 25.1647 17.3077 25.1647C16.5854 25.1647 16 25.7501 16 26.4724Z" fill="#898989" stroke="#898989" stroke-width="1.83461"/>
</svg>
