<svg width="29" height="28" viewBox="0 0 29 28" fill="none" xmlns="http://www.w3.org/2000/svg">
<path d="M24.8899 0.564453H4.30988C2.41824 0.564453 0.879883 2.10281 0.879883 3.99445V24.5745C0.879883 26.4661 2.41824 28.0045 4.30988 28.0045H14.5999V18.572H11.1699V14.2845H14.5999V10.8545C14.5999 9.48991 15.1419 8.18126 16.1068 7.21639C17.0717 6.25151 18.3803 5.70945 19.7449 5.70945H23.1749V9.99695H21.4599C20.5132 9.99695 19.7449 9.90777 19.7449 10.8545V14.2845H24.0324L22.3174 18.572H19.7449V28.0045H24.8899C26.7815 28.0045 28.3199 26.4661 28.3199 24.5745V3.99445C28.3199 2.10281 26.7815 0.564453 24.8899 0.564453Z" fill="white" fill-opacity="0.7"/>
</svg>
