<svg width="14" height="13" viewBox="0 0 14 13" fill="none" xmlns="http://www.w3.org/2000/svg">
<path d="M8.47192 6.49908L13.3843 1.8554C13.5994 1.65158 13.7203 1.37513 13.7203 1.08687C13.7203 0.798614 13.5994 0.522165 13.3843 0.318337C13.1692 0.114509 12.8774 0 12.5732 0C12.269 0 11.9772 0.114509 11.7621 0.318337L6.86111 4.97283L1.96015 0.318337C1.74503 0.114509 1.45327 -2.14767e-09 1.14904 0C0.844812 2.14767e-09 0.553045 0.114509 0.337924 0.318337C0.122803 0.522165 0.00194965 0.798614 0.00194964 1.08687C0.00194964 1.37513 0.122803 1.65158 0.337924 1.8554L5.25031 6.49908L0.337924 11.1427C0.230848 11.2434 0.145859 11.3631 0.0878598 11.495C0.029861 11.6269 0 11.7684 0 11.9113C0 12.0542 0.029861 12.1957 0.0878598 12.3276C0.145859 12.4595 0.230848 12.5792 0.337924 12.6798C0.444127 12.7813 0.570479 12.8618 0.709692 12.9168C0.848906 12.9717 0.998226 13 1.14904 13C1.29985 13 1.44917 12.9717 1.58838 12.9168C1.7276 12.8618 1.85395 12.7813 1.96015 12.6798L6.86111 8.02532L11.7621 12.6798C11.8683 12.7813 11.9946 12.8618 12.1338 12.9168C12.2731 12.9717 12.4224 13 12.5732 13C12.724 13 12.8733 12.9717 13.0125 12.9168C13.1517 12.8618 13.2781 12.7813 13.3843 12.6798C13.4914 12.5792 13.5764 12.4595 13.6344 12.3276C13.6924 12.1957 13.7222 12.0542 13.7222 11.9113C13.7222 11.7684 13.6924 11.6269 13.6344 11.495C13.5764 11.3631 13.4914 11.2434 13.3843 11.1427L8.47192 6.49908Z" fill="white"/>
</svg>
