<svg width="30" height="29" viewBox="0 0 30 29" fill="none" xmlns="http://www.w3.org/2000/svg">
<path fill-rule="evenodd" clip-rule="evenodd" d="M25.1667 6.04164H23.7529C23.5033 5.33412 23.0403 4.72145 22.4279 4.28809C21.8154 3.85473 21.0836 3.62201 20.3333 3.62201C19.5831 3.62201 18.8513 3.85473 18.2388 4.28809C17.6264 4.72145 17.1634 5.33412 16.9138 6.04164H5.83333C5.51286 6.04164 5.20552 6.16894 4.97891 6.39555C4.75231 6.62216 4.625 6.9295 4.625 7.24997C4.625 7.57044 4.75231 7.87778 4.97891 8.10439C5.20552 8.331 5.51286 8.4583 5.83333 8.4583H16.9138C17.1634 9.16582 17.6264 9.77849 18.2388 10.2119C18.8513 10.6452 19.5831 10.8779 20.3333 10.8779C21.0836 10.8779 21.8154 10.6452 22.4279 10.2119C23.0403 9.77849 23.5033 9.16582 23.7529 8.4583H25.1667C25.4871 8.4583 25.7945 8.331 26.0211 8.10439C26.2477 7.87778 26.375 7.57044 26.375 7.24997C26.375 6.9295 26.2477 6.62216 26.0211 6.39555C25.7945 6.16894 25.4871 6.04164 25.1667 6.04164ZM20.3333 8.4583C20.6538 8.4583 20.9611 8.331 21.1878 8.10439C21.4144 7.87778 21.5417 7.57044 21.5417 7.24997C21.5417 6.9295 21.4144 6.62216 21.1878 6.39555C20.9611 6.16894 20.6538 6.04164 20.3333 6.04164C20.0129 6.04164 19.7055 6.16894 19.4789 6.39555C19.2523 6.62216 19.125 6.9295 19.125 7.24997C19.125 7.57044 19.2523 7.87778 19.4789 8.10439C19.7055 8.331 20.0129 8.4583 20.3333 8.4583ZM4.625 14.5C4.625 14.1795 4.75231 13.8722 4.97891 13.6455C5.20552 13.4189 5.51286 13.2916 5.83333 13.2916H7.24708C7.49673 12.5841 7.95968 11.9715 8.57214 11.5381C9.1846 11.1047 9.9164 10.872 10.6667 10.872C11.4169 10.872 12.1487 11.1047 12.7612 11.5381C13.3736 11.9715 13.8366 12.5841 14.0863 13.2916H25.1667C25.4871 13.2916 25.7945 13.4189 26.0211 13.6455C26.2477 13.8722 26.375 14.1795 26.375 14.5C26.375 14.8204 26.2477 15.1278 26.0211 15.3544C25.7945 15.581 25.4871 15.7083 25.1667 15.7083H14.0863C13.8366 16.4158 13.3736 17.0285 12.7612 17.4619C12.1487 17.8952 11.4169 18.1279 10.6667 18.1279C9.9164 18.1279 9.1846 17.8952 8.57214 17.4619C7.95968 17.0285 7.49673 16.4158 7.24708 15.7083H5.83333C5.51286 15.7083 5.20552 15.581 4.97891 15.3544C4.75231 15.1278 4.625 14.8204 4.625 14.5ZM10.6667 15.7083C10.9871 15.7083 11.2945 15.581 11.5211 15.3544C11.7477 15.1278 11.875 14.8204 11.875 14.5C11.875 14.1795 11.7477 13.8722 11.5211 13.6455C11.2945 13.4189 10.9871 13.2916 10.6667 13.2916C10.3462 13.2916 10.0389 13.4189 9.81225 13.6455C9.58564 13.8722 9.45833 14.1795 9.45833 14.5C9.45833 14.8204 9.58564 15.1278 9.81225 15.3544C10.0389 15.581 10.3462 15.7083 10.6667 15.7083ZM5.83333 20.5416C5.51286 20.5416 5.20552 20.6689 4.97891 20.8955C4.75231 21.1222 4.625 21.4295 4.625 21.75C4.625 22.0704 4.75231 22.3778 4.97891 22.6044C5.20552 22.831 5.51286 22.9583 5.83333 22.9583H16.9138C17.1634 23.6658 17.6264 24.2785 18.2388 24.7119C18.8513 25.1452 19.5831 25.3779 20.3333 25.3779C21.0836 25.3779 21.8154 25.1452 22.4279 24.7119C23.0403 24.2785 23.5033 23.6658 23.7529 22.9583H25.1667C25.4871 22.9583 25.7945 22.831 26.0211 22.6044C26.2477 22.3778 26.375 22.0704 26.375 21.75C26.375 21.4295 26.2477 21.1222 26.0211 20.8955C25.7945 20.6689 25.4871 20.5416 25.1667 20.5416H23.7529C23.5033 19.8341 23.0403 19.2215 22.4279 18.7881C21.8154 18.3547 21.0836 18.122 20.3333 18.122C19.5831 18.122 18.8513 18.3547 18.2388 18.7881C17.6264 19.2215 17.1634 19.8341 16.9138 20.5416H5.83333ZM21.5417 21.75C21.5417 22.0704 21.4144 22.3778 21.1878 22.6044C20.9611 22.831 20.6538 22.9583 20.3333 22.9583C20.0129 22.9583 19.7055 22.831 19.4789 22.6044C19.2523 22.3778 19.125 22.0704 19.125 21.75C19.125 21.4295 19.2523 21.1222 19.4789 20.8955C19.7055 20.6689 20.0129 20.5416 20.3333 20.5416C20.6538 20.5416 20.9611 20.6689 21.1878 20.8955C21.4144 21.1222 21.5417 21.4295 21.5417 21.75Z" fill="#156677"/>
</svg>
