<svg width="21" height="20" viewBox="0 0 21 20" fill="none" xmlns="http://www.w3.org/2000/svg">
<path d="M7.64373 18.343V15.4295C7.64372 14.6912 8.27567 14.0913 9.05844 14.0867H11.9326C12.7189 14.0867 13.3563 14.6879 13.3563 15.4295V18.3345C13.3562 18.9749 13.904 19.4953 14.5829 19.5H16.5438C17.4596 19.5022 18.3388 19.1606 18.9872 18.5506C19.6356 17.9407 20 17.1124 20 16.2486V7.97254C20 7.27481 19.6721 6.61297 19.1046 6.16532L12.443 1.14055C11.2785 0.261667 9.61537 0.290058 8.48539 1.20811L1.96701 6.16532C1.37274 6.59977 1.01755 7.26357 1 7.97254V16.2402C1 18.0405 2.54738 19.5 4.45617 19.5H6.37229C6.69917 19.5022 7.01349 19.3813 7.24547 19.1641C7.47746 18.9469 7.60793 18.6513 7.60792 18.343H7.64373Z" fill="#898989"/>
</svg>
