<svg width="28" height="29" viewBox="0 0 28 29" fill="none" xmlns="http://www.w3.org/2000/svg">
<g clip-path="url(#clip0_1397_56)">
<path d="M23.497 27.8139H4.68893C2.20555 27.8139 0.185242 25.7979 0.185242 23.3195V4.55881C0.185242 2.08045 2.20555 0.0644531 4.68893 0.0644531H23.497C25.9797 0.0644531 28 2.08045 28 4.55881V23.3202C28 25.7986 25.9797 27.8139 23.497 27.8139ZM9.58391 23.0051H9.58965V11.0354H5.86565V23.0051H9.58319H9.58391ZM7.72514 9.40066C8.00828 9.40104 8.28872 9.34555 8.55038 9.23737C8.81204 9.12919 9.04979 8.97044 9.25 8.77023C9.45021 8.57002 9.60895 8.33228 9.71713 8.07061C9.82531 7.80895 9.8808 7.52852 9.88042 7.24538C9.87928 6.67411 9.65184 6.12657 9.2479 5.72262C8.84395 5.31867 8.29641 5.09123 7.72514 5.09009C7.15358 5.09028 6.60549 5.31742 6.20133 5.72157C5.79718 6.12572 5.57005 6.67382 5.56986 7.24538C5.57005 7.81693 5.79718 8.36503 6.20133 8.76918C6.60549 9.17333 7.15358 9.40047 7.72514 9.40066ZM23.5186 23.0058V16.4437C23.5186 13.2194 22.8186 10.7389 19.0565 10.7389C17.248 10.7389 16.034 11.7297 15.535 12.6702H15.4847V11.0354H11.9187V23.0051H15.6362V17.082C15.6362 15.5197 15.9327 14.0085 17.869 14.0085C19.773 14.0085 19.801 15.7947 19.801 17.1825V23.0051H23.5186V23.0058Z" fill="white" fill-opacity="0.7"/>
</g>
<defs>
<clipPath id="clip0_1397_56">
<rect width="28" height="28" fill="white" transform="translate(0 0.0644531)"/>
</clipPath>
</defs>
</svg>
