<svg width="9" height="10" viewBox="0 0 9 10" fill="none" xmlns="http://www.w3.org/2000/svg">
<path d="M4.5 0.270508C3.49752 0.27169 2.53643 0.670451 1.82756 1.37932C1.1187 2.08818 0.719937 3.04927 0.718754 4.05176C0.717553 4.87099 0.985154 5.668 1.4805 6.32051C1.4805 6.32051 1.58363 6.45629 1.60047 6.47588L4.5 9.89551L7.40091 6.47416C7.41603 6.45595 7.5195 6.32051 7.5195 6.32051L7.51985 6.31948C8.01495 5.66725 8.28243 4.87062 8.28125 4.05176C8.28007 3.04927 7.88131 2.08818 7.17244 1.37932C6.46358 0.670451 5.50249 0.27169 4.5 0.270508ZM4.5 5.42676C4.22805 5.42676 3.96221 5.34612 3.73609 5.19503C3.50998 5.04394 3.33374 4.8292 3.22967 4.57795C3.1256 4.3267 3.09837 4.05023 3.15142 3.78351C3.20448 3.51678 3.33543 3.27178 3.52773 3.07949C3.72003 2.88719 3.96503 2.75623 4.23175 2.70318C4.49848 2.65012 4.77494 2.67735 5.02619 2.78142C5.27744 2.88549 5.49219 3.06173 5.64327 3.28785C5.79436 3.51397 5.875 3.77981 5.875 4.05176C5.87455 4.41629 5.72954 4.76576 5.47177 5.02353C5.21401 5.28129 4.86454 5.4263 4.5 5.42676Z" fill="#969BA3"/>
</svg>
