<svg width="10" height="12" viewBox="0 0 10 12" fill="none" xmlns="http://www.w3.org/2000/svg">
<path d="M4.99994 0.75C3.90632 0.75129 2.85786 1.1863 2.08455 1.95961C1.31124 2.73292 0.876234 3.78138 0.874943 4.875C0.873634 5.76871 1.16556 6.63817 1.70594 7.35C1.70594 7.35 1.81844 7.49813 1.83682 7.5195L4.99994 11.25L8.16457 7.51763C8.18107 7.49775 8.29394 7.35 8.29394 7.35L8.29432 7.34888C8.83443 6.63736 9.12623 5.7683 9.12494 4.875C9.12365 3.78138 8.68864 2.73292 7.91533 1.95961C7.14203 1.1863 6.09357 0.75129 4.99994 0.75ZM4.99994 6.375C4.70327 6.375 4.41326 6.28703 4.16659 6.12221C3.91991 5.95738 3.72766 5.72312 3.61412 5.44903C3.50059 5.17494 3.47089 4.87334 3.52877 4.58237C3.58664 4.29139 3.7295 4.02412 3.93928 3.81434C4.14906 3.60456 4.41634 3.4617 4.70731 3.40382C4.99828 3.34594 5.29988 3.37565 5.57397 3.48918C5.84806 3.60271 6.08233 3.79497 6.24715 4.04165C6.41197 4.28832 6.49994 4.57833 6.49994 4.875C6.49945 5.27267 6.34125 5.65392 6.06006 5.93511C5.77886 6.21631 5.39762 6.3745 4.99994 6.375Z" fill="white"/>
</svg>
