<svg width="29" height="29" viewBox="0 0 29 29" fill="none" xmlns="http://www.w3.org/2000/svg">
<g clip-path="url(#clip0_1094_10230)">
<path d="M25.0799 8.99999H4C3.73478 8.99999 3.48043 8.89464 3.29289 8.7071C3.10536 8.51957 3 8.26521 3 8C3 7.73478 3.10536 7.48043 3.29289 7.29289C3.48043 7.10536 3.73478 7 4 7H25.0799C25.3452 7 25.5995 7.10536 25.787 7.29289C25.9746 7.48043 26.0799 7.73478 26.0799 8C26.0799 8.26521 25.9746 8.51957 25.787 8.7071C25.5995 8.89464 25.3452 8.99999 25.0799 8.99999Z" fill="#156677"/>
<path d="M20.71 15.0001H7C6.73478 15.0001 6.48043 14.8947 6.29289 14.7072C6.10536 14.5196 6 14.2653 6 14.0001C6 13.7348 6.10536 13.4805 6.29289 13.293C6.48043 13.1054 6.73478 13.0001 7 13.0001H20.71C20.9752 13.0001 21.2295 13.1054 21.4171 13.293C21.6046 13.4805 21.71 13.7348 21.71 14.0001C21.71 14.2653 21.6046 14.5196 21.4171 14.7072C21.2295 14.8947 20.9752 15.0001 20.71 15.0001Z" fill="#156677"/>
<path d="M17.28 21H11C10.7348 21 10.4804 20.8946 10.2929 20.7071C10.1054 20.5196 10 20.2652 10 20C10 19.7348 10.1054 19.4804 10.2929 19.2929C10.4804 19.1054 10.7348 19 11 19H17.28C17.5452 19 17.7996 19.1054 17.9871 19.2929C18.1746 19.4804 18.28 19.7348 18.28 20C18.28 20.2652 18.1746 20.5196 17.9871 20.7071C17.7996 20.8946 17.5452 21 17.28 21Z" fill="#156677"/>
</g>
<defs>
<clipPath id="clip0_1094_10230">
<rect width="29" height="29" fill="white"/>
</clipPath>
</defs>
</svg>
