<svg width="20" height="20" viewBox="0 0 20 20" fill="none" xmlns="http://www.w3.org/2000/svg">
<g clip-path="url(#clip0_2001_5179)">
<path d="M18.5278 0.5H6.32367C5.50767 0.5 4.84766 1.18837 4.84766 2.03526V7.59223H7.16366C7.15568 7.55887 7.14367 7.52967 7.14367 7.49211C7.14367 7.26266 7.32367 7.07492 7.54367 7.07492H17.3037C17.5277 7.07492 17.7037 7.26266 17.7037 7.49211C17.7037 7.72156 17.5277 7.9093 17.3037 7.9093H12.0477C12.5037 8.20134 12.8437 8.67276 12.9757 9.23178H15.8757C16.0957 9.23178 16.2757 9.41952 16.2757 9.64897C16.2757 9.87845 16.0957 10.0662 15.8757 10.0662H13.0397V12.7487L16.7917 15.3645C16.8597 15.4104 16.9358 15.4354 17.0157 15.4354C17.0797 15.4354 17.1437 15.4187 17.2037 15.3853C17.3317 15.3102 17.4157 15.1726 17.4157 15.0182V12.3315H18.5278C19.3397 12.3315 19.9998 11.639 19.9998 10.7921V2.03526C19.9998 1.18837 19.3397 0.5 18.5278 0.5ZM8.97168 2.76119H15.8757C16.0957 2.76119 16.2757 2.9489 16.2757 3.17838C16.2757 3.40783 16.0957 3.59557 15.8757 3.59557H8.97168C8.75169 3.59557 8.57168 3.40783 8.57168 3.17838C8.57168 2.9489 8.75169 2.76119 8.97168 2.76119ZM17.3037 5.75243H7.54367C7.32367 5.75243 7.14367 5.56469 7.14367 5.33524C7.14367 5.10579 7.32367 4.91805 7.54367 4.91805H17.3037C17.5277 4.91805 17.7037 5.10579 17.7037 5.33524C17.7037 5.56469 17.5277 5.75243 17.3037 5.75243Z" fill="#898989"/>
<path d="M10.9841 8.42676H1.25601C0.563993 8.42676 0 9.01501 0 9.73674V16.7163C0 17.4381 0.563993 18.0263 1.25601 18.0263H2.06002V20.083C2.06002 20.2374 2.14 20.3793 2.27201 20.4502C2.33202 20.4836 2.39601 20.5002 2.46003 20.5002C2.54001 20.5002 2.61601 20.4794 2.68403 20.4293L6.13205 18.0263H10.9841C11.6761 18.0263 12.2401 17.4381 12.2401 16.7163V9.73674C12.2401 9.01501 11.6761 8.42676 10.9841 8.42676ZM3.91917 14.1307C3.68557 14.3743 3.376 14.5055 3.05354 14.5055C2.95412 14.5055 2.85353 14.4928 2.75353 14.4676C2.31974 14.3572 1.97111 13.9934 1.86505 13.5411C1.76154 13.0983 1.88224 12.6436 2.18791 12.325C2.49377 12.006 2.93029 11.8817 3.35393 11.9885C3.78753 12.0989 4.13616 12.4627 4.24202 12.9149C4.34534 13.3578 4.22464 13.8121 3.91917 14.1307ZM6.99536 14.1213C6.76196 14.3702 6.44711 14.5051 6.1186 14.5051C6.02758 14.5051 5.93539 14.4949 5.84379 14.4737C5.40804 14.3735 5.05316 14.017 4.93968 13.5652C4.82718 13.117 4.9432 12.6554 5.25004 12.3307C5.55512 12.0072 5.99359 11.8797 6.42172 11.9889C6.85376 12.0989 7.20161 12.4615 7.30728 12.9121C7.4104 13.3509 7.2936 13.8027 6.99536 14.1213ZM10.0575 14.1258C9.82428 14.3727 9.51335 14.5055 9.18873 14.5055C9.08854 14.5055 8.98697 14.4928 8.886 14.4672C8.45377 14.3564 8.1063 13.9942 8.00044 13.5444C7.89751 13.1052 8.01392 12.6534 8.31217 12.3352C8.61002 12.017 9.04069 11.8842 9.46374 11.982C9.89968 12.0822 10.2546 12.4387 10.368 12.8909C10.4803 13.3391 10.3643 13.8006 10.0575 14.1258Z" fill="#969BA3"/>
</g>
<defs>
<clipPath id="clip0_2001_5179">
<rect width="20" height="20" fill="white"/>
</clipPath>
</defs>
</svg>
