<svg width="21" height="17" viewBox="0 0 21 17" fill="none" xmlns="http://www.w3.org/2000/svg">
<path d="M15 8.5C16.38 8.5 17.49 7.22 17.49 5.64286C17.49 4.06571 16.38 2.78571 15 2.78571C13.62 2.78571 12.5 4.06571 12.5 5.64286C12.5 7.22 13.62 8.5 15 8.5ZM7.5 7.35714C9.155 7.35714 10.49 5.82 10.49 3.92857C10.49 2.03714 9.155 0.5 7.5 0.5C5.845 0.5 4.5 2.03714 4.5 3.92857C4.5 5.82 5.845 7.35714 7.5 7.35714ZM15 10.7857C13.165 10.7857 9.5 11.8371 9.5 13.9286V16.5H20.5V13.9286C20.5 11.8371 16.835 10.7857 15 10.7857ZM7.5 9.64286C5.165 9.64286 0.5 10.98 0.5 13.6429V16.5H7.5V13.9286C7.5 12.9571 7.835 11.26 9.87 9.96286C9 9.75143 8.155 9.64286 7.5 9.64286Z" fill="#898989"/>
</svg>
