<svg width="1575" height="545" viewBox="0 0 1575 545" fill="none" xmlns="http://www.w3.org/2000/svg">
<path d="M742.91 323.26L743.87 337.66C743.87 340.38 743.55 342.22 742.91 343.18C742.27 344.14 741.31 344.62 740.03 344.62C738.91 344.62 737.63 343.5 736.19 341.26C734.91 338.86 733.39 336.3 731.63 333.58C730.03 330.86 727.31 328.38 723.47 326.14C719.79 323.74 715.55 322.54 710.75 322.54C705.95 322.54 702.03 323.74 698.99 326.14C695.95 328.38 694.43 330.86 694.43 333.58C694.43 336.3 694.67 338.54 695.15 340.3C695.63 341.9 696.43 343.34 697.55 344.62C698.83 345.9 699.87 347.02 700.67 347.98C701.63 348.78 703.15 349.66 705.23 350.62C707.31 351.58 708.83 352.3 709.79 352.78C710.91 353.1 712.67 353.74 715.07 354.7C729.63 359.82 738.99 364.86 743.15 369.82C747.31 374.62 749.39 381.58 749.39 390.7C749.39 399.82 745.15 408.22 736.67 415.9C730.91 420.86 722.99 423.34 712.91 423.34C706.03 423.34 698.35 421.66 689.87 418.3C687.47 417.34 686.03 416.86 685.55 416.86C685.23 416.7 684.59 416.46 683.63 416.14C682.83 415.82 682.19 415.66 681.71 415.66C681.39 415.5 680.91 415.26 680.27 414.94C679.63 414.62 679.15 414.38 678.83 414.22C678.67 413.9 678.43 413.5 678.11 413.02C677.63 412.22 677.39 410.94 677.39 409.18V388.3C677.39 386.54 677.71 385.1 678.35 383.98C679.15 382.7 680.19 382.06 681.47 382.06C682.75 382.06 683.63 382.46 684.11 383.26C684.75 383.9 685.31 385.34 685.79 387.58C686.27 389.82 686.75 391.42 687.23 392.38C693.15 407.1 701.47 414.46 712.19 414.46C717.15 414.46 721.87 413.18 726.35 410.62C730.83 407.9 733.07 403.74 733.07 398.14C733.07 392.38 731.23 387.74 727.55 384.22C723.87 380.7 719.39 377.98 714.11 376.06C708.83 373.98 703.55 371.9 698.27 369.82C692.99 367.58 688.51 364.38 684.83 360.22C681.15 355.9 679.31 350.54 679.31 344.14C679.31 335.18 682.91 327.98 690.11 322.54C697.31 317.1 705.23 314.38 713.87 314.38C722.51 314.38 729.07 315.1 733.55 316.54C738.03 317.82 740.67 319.02 741.47 320.14C742.43 321.26 742.91 322.3 742.91 323.26ZM818.409 424.06C804.329 424.06 792.329 419.74 782.409 411.1C772.649 402.46 767.769 389.98 767.769 373.66C767.769 357.18 772.249 343.42 781.209 332.38C790.329 321.34 802.089 315.82 816.489 315.82C823.209 315.82 829.289 317.02 834.729 319.42C840.329 321.82 844.649 324.78 847.689 328.3C850.729 331.66 853.289 335.26 855.369 339.1C858.889 345.66 860.649 350.62 860.649 353.98C860.649 356.86 857.369 358.3 850.809 358.3H789.129C787.849 358.3 787.049 358.46 786.729 358.78C786.569 358.94 786.489 359.66 786.489 360.94C786.489 375.98 790.489 387.82 798.489 396.46C806.649 405.1 816.169 409.42 827.049 409.42C833.769 409.42 840.569 407.66 847.449 404.14C854.489 400.46 858.169 398.62 858.489 398.62C860.089 398.62 860.889 399.34 860.889 400.78C860.889 402.7 859.129 405.34 855.609 408.7C852.089 411.9 848.729 414.54 845.529 416.62C837.849 421.58 828.809 424.06 818.409 424.06ZM791.049 352.54L833.289 351.1C835.529 351.1 836.889 350.94 837.369 350.62C838.009 350.14 838.329 349.34 838.329 348.22C838.329 343.42 836.089 337.82 831.609 331.42C827.129 325.02 820.889 321.82 812.889 321.82C804.889 321.82 798.729 325.02 794.409 331.42C790.089 337.66 787.929 343.58 787.929 349.18C787.929 351.42 788.969 352.54 791.049 352.54ZM890.874 373.42L891.834 271.42C891.834 267.74 891.194 264.46 889.914 261.58C888.794 258.54 887.514 256.7 886.074 256.06C884.634 255.42 881.434 255.1 876.474 255.1C874.714 255.1 873.834 254.54 873.834 253.42C873.834 252.3 873.914 251.5 874.074 251.02C874.394 250.54 874.954 250.14 875.754 249.82C876.554 249.34 877.514 248.94 878.634 248.62C883.274 247.66 888.074 245.98 893.034 243.58C900.874 239.9 905.994 238.06 908.394 238.06C910.314 238.06 911.274 239.58 911.274 242.62C911.274 243.26 911.114 245.1 910.794 248.14C909.834 257.58 909.354 267.9 909.354 279.1V292.54L908.874 324.46V395.98C908.874 399.34 909.114 402.14 909.594 404.38C910.234 406.46 912.074 408.54 915.114 410.62C918.314 412.54 922.714 413.5 928.314 413.5C929.114 413.5 929.834 413.9 930.474 414.7C931.114 415.5 931.434 416.3 931.434 417.1C931.434 419.34 928.954 420.46 923.994 420.46L899.754 418.78C895.594 418.78 891.594 419.1 887.754 419.74C884.074 420.38 881.594 420.7 880.314 420.7C879.194 420.7 878.234 420.38 877.434 419.74C876.794 419.26 876.474 418.62 876.474 417.82C876.474 416.86 876.794 416.14 877.434 415.66C878.234 415.02 879.434 414.54 881.034 414.22C885.834 412.94 888.714 411.02 889.674 408.46C890.634 405.74 891.114 402.06 891.114 397.42L890.874 391.18V373.42ZM993.721 424.06C979.641 424.06 967.641 419.74 957.721 411.1C947.961 402.46 943.081 389.98 943.081 373.66C943.081 357.18 947.561 343.42 956.521 332.38C965.641 321.34 977.401 315.82 991.801 315.82C998.521 315.82 1004.6 317.02 1010.04 319.42C1015.64 321.82 1019.96 324.78 1023 328.3C1026.04 331.66 1028.6 335.26 1030.68 339.1C1034.2 345.66 1035.96 350.62 1035.96 353.98C1035.96 356.86 1032.68 358.3 1026.12 358.3H964.441C963.161 358.3 962.361 358.46 962.041 358.78C961.881 358.94 961.801 359.66 961.801 360.94C961.801 375.98 965.801 387.82 973.801 396.46C981.961 405.1 991.481 409.42 1002.36 409.42C1009.08 409.42 1015.88 407.66 1022.76 404.14C1029.8 400.46 1033.48 398.62 1033.8 398.62C1035.4 398.62 1036.2 399.34 1036.2 400.78C1036.2 402.7 1034.44 405.34 1030.92 408.7C1027.4 411.9 1024.04 414.54 1020.84 416.62C1013.16 421.58 1004.12 424.06 993.721 424.06ZM966.361 352.54L1008.6 351.1C1010.84 351.1 1012.2 350.94 1012.68 350.62C1013.32 350.14 1013.64 349.34 1013.64 348.22C1013.64 343.42 1011.4 337.82 1006.92 331.42C1002.44 325.02 996.201 321.82 988.201 321.82C980.201 321.82 974.041 325.02 969.721 331.42C965.401 337.66 963.241 343.58 963.241 349.18C963.241 351.42 964.281 352.54 966.361 352.54ZM1104.56 424.54C1089.52 424.54 1077.44 419.98 1068.32 410.86C1059.36 401.74 1054.88 389.42 1054.88 373.9C1054.88 358.22 1060 344.78 1070.24 333.58C1080.64 322.22 1094.08 316.54 1110.56 316.54C1116.16 316.54 1122.16 317.34 1128.56 318.94C1135.12 320.54 1138.48 322.38 1138.64 324.46C1138.96 328.3 1139.12 332.94 1139.12 338.38C1139.12 343.66 1138.24 346.3 1136.48 346.3C1134.88 346.3 1133.44 345.26 1132.16 343.18C1129.44 338.54 1124.24 334.54 1116.56 331.18C1109.04 327.66 1102.4 325.9 1096.64 325.9C1093.44 325.9 1090.32 327.1 1087.28 329.5C1084.24 331.9 1081.76 334.54 1079.84 337.42C1075.2 344.14 1072.88 353.66 1072.88 365.98C1072.88 378.3 1076.8 389.1 1084.64 398.38C1092.64 407.5 1102.4 412.06 1113.92 412.06C1119.52 412.06 1124.72 411.02 1129.52 408.94C1134.32 406.86 1138 404.78 1140.56 402.7C1143.28 400.62 1144.96 399.58 1145.6 399.58C1147.36 399.58 1148.24 400.38 1148.24 401.98C1148.24 403.58 1146.56 406.06 1143.2 409.42C1139.84 412.62 1136.56 415.18 1133.36 417.1C1125.52 422.06 1115.92 424.54 1104.56 424.54ZM1167.98 330.46L1163.42 330.7C1160.7 330.7 1159.34 329.58 1159.34 327.34C1159.34 325.74 1160.06 324.38 1161.5 323.26C1167.58 319.26 1173.66 313.26 1179.74 305.26C1182.3 301.58 1184.3 298.94 1185.74 297.34C1187.34 295.58 1188.94 294.7 1190.54 294.7C1192.14 294.7 1192.94 296.54 1192.94 300.22C1192.94 300.22 1192.62 304.78 1191.98 313.9C1191.98 316.14 1192.38 317.5 1193.18 317.98C1194.14 318.46 1197.02 318.7 1201.82 318.7H1210.22C1217.42 318.7 1221.82 318.3 1223.42 317.5C1226.3 316.06 1228.06 315.34 1228.7 315.34C1230.3 315.34 1231.1 316.22 1231.1 317.98C1231.1 319.26 1230.06 321.82 1227.98 325.66C1225.9 329.34 1224.38 331.18 1223.42 331.18C1216.22 331.18 1211.18 331.02 1208.3 330.7C1205.42 330.38 1203.5 330.22 1202.54 330.22C1201.58 330.06 1200.7 329.98 1199.9 329.98C1199.26 329.82 1198.78 329.74 1198.46 329.74L1197.98 329.5C1194.94 329.5 1192.94 329.98 1191.98 330.94C1191.18 331.9 1190.78 334.06 1190.78 337.42L1189.82 382.06C1189.82 392.46 1191.1 399.74 1193.66 403.9C1196.38 407.9 1201.98 409.9 1210.46 409.9C1213.82 409.9 1217.5 409.18 1221.5 407.74C1225.66 406.14 1227.9 405.34 1228.22 405.34C1229.82 405.34 1230.62 406.38 1230.62 408.46C1230.62 410.54 1227.82 413.34 1222.22 416.86C1216.78 420.22 1210.86 421.9 1204.46 421.9C1182.86 421.9 1172.06 412.54 1172.06 393.82V390.22L1173.02 334.3C1173.02 332.7 1172.7 331.66 1172.06 331.18C1171.42 330.7 1170.06 330.46 1167.98 330.46ZM1273.05 420.46L1256.01 420.94C1249.61 420.94 1246.41 419.9 1246.41 417.82C1246.41 415.58 1247.61 414.06 1250.01 413.26C1250.17 413.26 1250.49 413.18 1250.97 413.02C1254.65 411.74 1257.05 409.82 1258.17 407.26C1259.29 404.7 1259.85 392.3 1259.85 370.06V348.94C1259.85 344.3 1259.29 340.62 1258.17 337.9C1257.05 335.18 1256.01 333.5 1255.05 332.86C1254.09 332.22 1252.41 331.74 1250.01 331.42C1247.77 330.94 1246.09 330.54 1244.97 330.22C1244.01 329.74 1243.53 329.1 1243.53 328.3C1243.53 327.34 1243.69 326.62 1244.01 326.14C1244.49 325.66 1245.29 325.18 1246.41 324.7C1247.69 324.06 1248.97 323.5 1250.25 323.02C1254.73 321.74 1258.41 320.46 1261.29 319.18C1264.17 317.9 1266.33 316.94 1267.77 316.3C1269.37 315.66 1270.41 315.18 1270.89 314.86C1272.01 314.38 1273.37 314.14 1274.97 314.14C1277.37 314.14 1278.57 315.66 1278.57 318.7L1277.13 330.22V395.98C1277.13 400.78 1277.85 404.54 1279.29 407.26C1280.89 409.98 1282.49 411.66 1284.09 412.3C1285.85 412.94 1287.85 413.34 1290.09 413.5C1292.33 413.66 1293.77 413.74 1294.41 413.74C1296.65 414.06 1297.77 415.18 1297.77 417.1C1297.77 419.82 1296.41 421.18 1293.69 421.18L1290.09 420.94L1273.05 420.46ZM1268.97 291.58C1265.77 291.58 1262.97 289.9 1260.57 286.54C1258.33 283.18 1257.21 280.46 1257.21 278.38C1257.21 276.14 1258.57 273.34 1261.29 269.98C1264.17 266.46 1266.81 264.7 1269.21 264.7C1271.77 264.7 1274.25 266.38 1276.65 269.74C1279.05 272.94 1280.25 275.82 1280.25 278.38C1280.25 280.94 1278.73 283.82 1275.69 287.02C1272.65 290.06 1270.41 291.58 1268.97 291.58ZM1364.8 423.82C1348.48 423.82 1335.44 418.62 1325.68 408.22C1316.08 397.66 1311.28 385.1 1311.28 370.54C1311.28 355.98 1316.24 343.26 1326.16 332.38C1336.24 321.5 1349.44 316.06 1365.76 316.06C1382.24 316.06 1396 320.78 1407.04 330.22C1418.24 339.66 1423.84 352.78 1423.84 369.58C1423.84 386.38 1418.08 399.66 1406.56 409.42C1395.2 419.02 1381.28 423.82 1364.8 423.82ZM1362.16 322.54C1353.84 322.54 1346.4 325.82 1339.84 332.38C1333.44 338.94 1330.24 349.74 1330.24 364.78C1330.24 379.82 1334.64 392.22 1343.44 401.98C1352.24 411.74 1361.68 416.62 1371.76 416.62C1382 416.62 1390.24 413.18 1396.48 406.3C1402.72 399.26 1405.84 389.02 1405.84 375.58C1405.84 362.14 1402 349.98 1394.32 339.1C1386.64 328.06 1375.92 322.54 1362.16 322.54ZM1492.69 419.5L1475.17 418.54C1471.01 418.54 1465.49 418.7 1458.61 419.02L1448.29 419.5C1445.89 419.5 1444.69 418.78 1444.69 417.34C1444.69 415.9 1445.09 415.02 1445.89 414.7C1446.69 414.38 1447.65 414.14 1448.77 413.98C1450.05 413.82 1451.25 413.34 1452.37 412.54C1455.41 410.62 1457.09 404.86 1457.41 395.26C1457.73 385.5 1457.89 379.1 1457.89 376.06V341.5C1457.89 336.38 1456.93 332.94 1455.01 331.18C1453.25 329.42 1450.77 328.54 1447.57 328.54H1445.17C1442.13 328.54 1440.61 327.66 1440.61 325.9C1440.61 324.3 1442.29 323.26 1445.65 322.78C1449.17 322.3 1451.89 321.82 1453.81 321.34C1455.89 320.7 1458.53 319.74 1461.73 318.46C1465.09 317.02 1467.73 315.82 1469.65 314.86C1471.73 313.9 1473.09 313.42 1473.73 313.42H1474.21C1475.65 313.42 1476.37 314.38 1476.37 316.3L1475.89 326.62C1475.89 330.78 1476.21 332.86 1476.85 332.86C1477.49 332.86 1478.13 332.46 1478.77 331.66C1481.17 328.3 1484.37 325.42 1488.37 323.02C1495.57 318.54 1502.45 316.3 1509.01 316.3C1515.57 316.3 1521.41 317.34 1526.53 319.42C1531.65 321.34 1535.65 323.82 1538.53 326.86C1541.41 329.74 1543.81 333.1 1545.73 336.94C1548.93 343.34 1550.53 349.9 1550.53 356.62V359.02L1550.77 371.74V396.22C1550.77 402.3 1551.57 406.54 1553.17 408.94C1554.93 411.18 1559.01 412.78 1565.41 413.74C1568.61 414.22 1570.21 415.42 1570.21 417.34C1570.21 418.94 1568.61 419.74 1565.41 419.74L1545.73 418.54L1527.25 419.5C1524.05 419.5 1522.45 418.46 1522.45 416.38C1522.45 414.94 1523.41 413.98 1525.33 413.5L1528.45 412.78C1531.97 411.66 1533.73 406.3 1533.73 396.7V364.3C1533.73 351.98 1530.69 342.7 1524.61 336.46C1518.53 330.06 1511.65 326.86 1503.97 326.86C1496.29 326.86 1489.89 328.7 1484.77 332.38C1479.65 336.06 1476.53 339.5 1475.41 342.7C1474.29 345.9 1473.73 358.14 1473.73 379.42V388.54C1473.73 396.54 1474.53 402.46 1476.13 406.3C1477.89 410.14 1481.65 412.3 1487.41 412.78C1489.01 412.78 1491.01 413.1 1493.41 413.74C1495.97 414.22 1497.25 415.1 1497.25 416.38C1497.25 418.46 1495.73 419.5 1492.69 419.5Z" fill="#EEE8E3"/>
<path d="M76.44 96.82C74.04 93.62 72.84 90.9 72.84 88.66C72.84 86.42 74.04 83.86 76.44 80.98C79 77.94 81.56 76.42 84.12 76.42C86.84 76.42 89.4 77.86 91.8 80.74C94.36 83.46 95.64 86.1 95.64 88.66C95.64 91.22 94.2 94.02 91.32 97.06C88.6 99.94 86.52 101.38 85.08 101.38C81.88 101.38 79 99.86 76.44 96.82ZM51 272.02L50.52 263.38C50.52 258.74 52.28 256.42 55.8 256.42C57.56 256.42 60.04 258.1 63.24 261.46C66.44 264.98 68.6 266.74 69.72 266.74C71.8 266.74 73.24 264.02 74.04 258.58C74.84 253.3 75.24 243.14 75.24 228.1V155.14C75.24 148.26 73.16 143.94 69 142.18C66.92 141.38 64.44 140.98 61.56 140.98C58.68 140.98 57.24 140.18 57.24 138.58C57.24 137.62 57.96 136.9 59.4 136.42C68.04 133.86 75.08 131.3 80.52 128.74C86.12 126.18 89.16 124.9 89.64 124.9C91.56 124.9 92.52 126.74 92.52 130.42V133.06L92.04 144.34V222.1C92.04 230.9 91.24 239.22 89.64 247.06C88.04 254.9 84.68 262.1 79.56 268.66C74.6 275.22 68.6 278.5 61.56 278.5C54.52 278.5 51 276.34 51 272.02ZM172.5 235.06C158.42 235.06 146.42 230.74 136.5 222.1C126.74 213.46 121.86 200.98 121.86 184.66C121.86 168.18 126.34 154.42 135.3 143.38C144.42 132.34 156.18 126.82 170.58 126.82C177.3 126.82 183.38 128.02 188.82 130.42C194.42 132.82 198.74 135.78 201.78 139.3C204.82 142.66 207.38 146.26 209.46 150.1C212.98 156.66 214.74 161.62 214.74 164.98C214.74 167.86 211.46 169.3 204.9 169.3H143.22C141.94 169.3 141.14 169.46 140.82 169.78C140.66 169.94 140.58 170.66 140.58 171.94C140.58 186.98 144.58 198.82 152.58 207.46C160.74 216.1 170.26 220.42 181.14 220.42C187.86 220.42 194.66 218.66 201.54 215.14C208.58 211.46 212.26 209.62 212.58 209.62C214.18 209.62 214.98 210.34 214.98 211.78C214.98 213.7 213.22 216.34 209.7 219.7C206.18 222.9 202.82 225.54 199.62 227.62C191.94 232.58 182.9 235.06 172.5 235.06ZM145.14 163.54L187.38 162.1C189.62 162.1 190.98 161.94 191.46 161.62C192.1 161.14 192.42 160.34 192.42 159.22C192.42 154.42 190.18 148.82 185.7 142.42C181.22 136.02 174.98 132.82 166.98 132.82C158.98 132.82 152.82 136.02 148.5 142.42C144.18 148.66 142.02 154.58 142.02 160.18C142.02 162.42 143.06 163.54 145.14 163.54ZM319.181 129.22L326.621 128.98C330.141 128.98 331.901 130.1 331.901 132.34C331.901 133.46 331.661 134.1 331.181 134.26C330.221 134.58 329.261 134.74 328.301 134.74C323.501 135.06 321.101 137.3 321.101 141.46C321.101 147.38 325.821 160.74 335.261 181.54C336.541 184.1 338.061 187.62 339.821 192.1C343.341 201.22 345.581 205.78 346.541 205.78C348.141 205.78 352.301 197.06 359.021 179.62C365.901 162.02 369.341 151.14 369.341 146.98C369.341 142.82 368.621 140.02 367.181 138.58C365.901 136.98 364.461 136.1 362.861 135.94C358.381 135.3 356.141 133.7 356.141 131.14C356.141 129.86 357.821 129.22 361.181 129.22H388.781C391.821 129.22 393.741 129.38 394.541 129.7C395.341 130.02 395.741 130.9 395.741 132.34C395.741 133.78 394.381 135.06 391.661 136.18C389.101 137.14 387.021 138.74 385.421 140.98C383.821 143.22 382.381 145.7 381.101 148.42C379.821 150.98 378.381 154.18 376.781 158.02C371.981 170.02 365.981 183.62 358.781 198.82C351.581 214.02 347.581 222.34 346.781 223.78C346.141 225.22 345.261 226.9 344.141 228.82C342.541 232.02 341.021 233.62 339.581 233.62C336.861 233.62 331.741 223.3 324.221 202.66C316.701 181.86 312.301 171.46 311.021 171.46C310.541 171.46 305.421 181.7 295.661 202.18C285.901 222.66 279.501 232.9 276.461 232.9C275.181 232.9 273.981 231.78 272.861 229.54C271.741 227.3 268.621 219.62 263.501 206.5C258.541 193.38 254.461 182.9 251.261 175.06C248.061 167.06 245.741 161.14 244.301 157.3C243.021 153.3 242.061 150.5 241.421 148.9C239.181 144.42 235.421 139.94 230.141 135.46C229.501 134.82 228.781 134.34 227.981 134.02C227.181 133.54 226.621 133.22 226.301 133.06C225.821 132.58 225.581 131.78 225.581 130.66C225.581 128.9 227.101 128.02 230.141 128.02L247.181 128.98L258.941 128.74C263.741 128.74 266.781 128.9 268.061 129.22C269.501 129.38 270.221 130.1 270.221 131.38C270.221 132.66 269.341 133.54 267.581 134.02C262.301 135.14 259.661 138.34 259.661 143.62C259.661 148.74 264.141 161.38 273.101 181.54C274.221 183.78 275.741 187.3 277.661 192.1C279.581 196.74 281.101 200.18 282.221 202.42C283.341 204.5 284.221 205.54 284.861 205.54C285.501 205.54 287.501 202.34 290.861 195.94C294.381 189.38 296.701 184.9 297.821 182.5C299.101 180.1 300.061 178.34 300.701 177.22C301.341 175.94 302.061 174.58 302.861 173.14C303.661 171.54 304.221 170.42 304.541 169.78C304.861 168.98 305.181 168.1 305.501 167.14C305.981 166.18 306.301 165.54 306.461 165.22C306.621 164.74 306.781 164.18 306.941 163.54C307.101 162.74 307.181 162.1 307.181 161.62V159.94C307.181 158.82 306.381 156.42 304.781 152.74C303.341 149.06 301.741 146.02 299.981 143.62C298.381 141.06 296.621 138.98 294.701 137.38C292.781 135.78 291.341 134.82 290.381 134.5C287.821 133.54 286.541 132.34 286.541 130.9C286.541 129.46 287.741 128.74 290.141 128.74L319.181 129.22ZM453.281 235.06C439.201 235.06 427.201 230.74 417.281 222.1C407.521 213.46 402.641 200.98 402.641 184.66C402.641 168.18 407.121 154.42 416.081 143.38C425.201 132.34 436.961 126.82 451.361 126.82C458.081 126.82 464.161 128.02 469.601 130.42C475.201 132.82 479.521 135.78 482.561 139.3C485.601 142.66 488.161 146.26 490.241 150.1C493.761 156.66 495.521 161.62 495.521 164.98C495.521 167.86 492.241 169.3 485.681 169.3H424.001C422.721 169.3 421.921 169.46 421.601 169.78C421.441 169.94 421.361 170.66 421.361 171.94C421.361 186.98 425.361 198.82 433.361 207.46C441.521 216.1 451.041 220.42 461.921 220.42C468.641 220.42 475.441 218.66 482.321 215.14C489.361 211.46 493.041 209.62 493.361 209.62C494.961 209.62 495.761 210.34 495.761 211.78C495.761 213.7 494.001 216.34 490.481 219.7C486.961 222.9 483.601 225.54 480.401 227.62C472.721 232.58 463.681 235.06 453.281 235.06ZM425.921 163.54L468.161 162.1C470.401 162.1 471.761 161.94 472.241 161.62C472.881 161.14 473.201 160.34 473.201 159.22C473.201 154.42 470.961 148.82 466.481 142.42C462.001 136.02 455.761 132.82 447.761 132.82C439.761 132.82 433.601 136.02 429.281 142.42C424.961 148.66 422.801 154.58 422.801 160.18C422.801 162.42 423.841 163.54 425.921 163.54ZM525.746 184.42L526.706 82.42C526.706 78.74 526.066 75.46 524.786 72.58C523.666 69.54 522.386 67.7 520.946 67.06C519.506 66.42 516.306 66.1 511.346 66.1C509.586 66.1 508.706 65.54 508.706 64.42C508.706 63.3 508.786 62.5 508.946 62.02C509.266 61.54 509.826 61.14 510.626 60.82C511.426 60.34 512.386 59.94 513.506 59.62C518.146 58.66 522.946 56.98 527.906 54.58C535.746 50.9 540.866 49.06 543.266 49.06C545.186 49.06 546.146 50.58 546.146 53.62C546.146 54.26 545.986 56.1 545.666 59.14C544.706 68.58 544.226 78.9 544.226 90.1V103.54L543.746 135.46V206.98C543.746 210.34 543.986 213.14 544.466 215.38C545.106 217.46 546.946 219.54 549.986 221.62C553.186 223.54 557.586 224.5 563.186 224.5C563.986 224.5 564.706 224.9 565.346 225.7C565.986 226.5 566.306 227.3 566.306 228.1C566.306 230.34 563.826 231.46 558.866 231.46L534.626 229.78C530.466 229.78 526.466 230.1 522.626 230.74C518.946 231.38 516.466 231.7 515.186 231.7C514.066 231.7 513.106 231.38 512.306 230.74C511.666 230.26 511.346 229.62 511.346 228.82C511.346 227.86 511.666 227.14 512.306 226.66C513.106 226.02 514.306 225.54 515.906 225.22C520.706 223.94 523.586 222.02 524.546 219.46C525.506 216.74 525.986 213.06 525.986 208.42L525.746 202.18V184.42ZM581.074 143.38L578.434 143.14C575.394 143.14 573.874 141.86 573.874 139.3C573.874 137.54 574.914 136.26 576.994 135.46C579.234 134.5 583.234 133.14 588.994 131.38C594.914 129.46 599.554 127.78 602.914 126.34C606.274 124.74 608.274 123.94 608.914 123.94C610.994 123.94 612.034 125.54 612.034 128.74L611.794 135.22C611.794 140.98 611.954 144.18 612.274 144.82C612.754 145.3 613.154 145.54 613.474 145.54C613.954 145.54 615.234 143.94 617.314 140.74C619.394 137.54 622.354 134.34 626.194 131.14C630.034 127.78 633.794 126.1 637.474 126.1C641.314 126.1 645.234 127.46 649.234 130.18C653.234 132.74 655.234 135.38 655.234 138.1C655.234 140.66 654.594 143.06 653.314 145.3C651.074 149.14 648.994 151.06 647.074 151.06C645.794 151.06 643.474 150.1 640.114 148.18C636.914 146.26 633.154 145.3 628.834 145.3C624.514 145.3 620.434 147.06 616.594 150.58C612.914 154.1 611.074 157.3 611.074 160.18V185.14L611.314 206.02L611.554 210.34C611.554 213.7 612.674 216.58 614.914 218.98C617.154 221.38 619.234 222.74 621.154 223.06C623.234 223.38 624.994 223.62 626.434 223.78C627.874 223.94 628.994 224.1 629.794 224.26C630.594 224.26 631.474 224.42 632.434 224.74C634.194 225.06 635.074 226.26 635.074 228.34C635.074 230.26 634.114 231.22 632.194 231.22L611.794 230.02L586.834 231.22C583.954 231.22 582.354 230.9 582.034 230.26C581.714 229.62 581.554 228.98 581.554 228.34C581.554 226.26 582.594 224.9 584.674 224.26C588.834 223.3 591.314 221.3 592.114 218.26C593.074 215.06 593.554 208.34 593.554 198.1L593.314 159.46L593.074 152.26C593.074 150.5 592.834 149.06 592.354 147.94C591.074 144.9 587.314 143.38 581.074 143.38ZM707.554 276.1L697.234 276.34C694.194 276.34 692.674 275.3 692.674 273.22C692.674 272.74 694.434 270.26 697.954 265.78C701.634 261.3 705.314 255.78 708.994 249.22C712.674 242.66 714.514 236.82 714.514 231.7C714.514 226.74 709.954 214.34 700.834 194.5C691.714 174.66 683.794 158.42 677.074 145.78C675.314 142.58 673.474 140.1 671.554 138.34C669.794 136.58 668.354 135.62 667.234 135.46C664.674 135.14 663.394 133.94 663.394 131.86C663.394 129.78 664.994 128.74 668.194 128.74L693.874 129.22L707.554 128.74C708.674 128.74 709.634 129.06 710.434 129.7C711.394 130.18 711.874 130.74 711.874 131.38C711.874 134.26 709.954 135.7 706.114 135.7H702.514C699.954 135.7 698.674 137.7 698.674 141.7C698.674 146.5 702.914 158.02 711.394 176.26C712.674 178.98 714.594 183.3 717.154 189.22C721.954 200.1 724.834 205.54 725.794 205.54C726.754 205.54 730.434 196.34 736.834 177.94C743.394 159.54 746.674 148.58 746.674 145.06C746.674 141.54 745.874 139.06 744.274 137.62C742.834 136.18 741.154 135.46 739.234 135.46C734.274 135.78 731.794 134.42 731.794 131.38C731.794 129.46 733.314 128.5 736.354 128.5L753.634 128.74L768.514 128.5C771.874 128.5 773.554 129.54 773.554 131.62C773.554 133.22 772.114 134.42 769.234 135.22C766.514 135.86 764.674 136.82 763.714 138.1C761.154 141.78 756.834 151.86 750.754 168.34L729.394 225.22C727.634 229.86 725.874 234.58 724.114 239.38C722.354 244.34 720.914 248.34 719.794 251.38C718.674 254.42 717.554 257.46 716.434 260.5C715.314 263.54 714.434 265.86 713.794 267.46C713.154 269.22 712.514 270.82 711.874 272.26C710.594 274.82 709.394 276.1 708.274 276.1H707.554Z" fill="#EEE8E3"/>
</svg>
