<svg width="26" height="30" viewBox="0 0 26 30" fill="none" xmlns="http://www.w3.org/2000/svg">
<path d="M1.81216 30.0004H24.0889C24.2292 29.9998 24.3675 29.9679 24.4937 29.907C24.6199 29.8461 24.7306 29.7578 24.8177 29.6486C24.9048 29.5393 24.966 29.412 24.9968 29.2761C25.0276 29.1402 25.0272 28.9991 24.9956 28.8634L1.81216 30.0004ZM1.81216 30.0004C1.68243 30.001 1.55399 29.9747 1.43503 29.9233M1.81216 30.0004L1.43503 29.9233M1.43503 29.9233C1.31606 29.8719 1.20918 29.7965 1.12119 29.7018L1.43503 29.9233ZM24.0876 29.4624L1.81216 29.4624L1.80968 29.4624C1.75411 29.4626 1.69918 29.4514 1.64843 29.4295C1.59769 29.4075 1.55239 29.3755 1.51527 29.3355C1.47816 29.2956 1.45003 29.2487 1.43247 29.1978C1.4149 29.1469 1.40823 29.0931 1.41279 29.0397L3.28952 7.07993L3.28952 7.07992C3.29775 6.98358 3.34216 6.89304 3.41506 6.82655C3.48805 6.75998 3.58424 6.72252 3.68471 6.72256H3.68493H22.2556H22.2557C22.3561 6.72254 22.4522 6.76008 22.5251 6.82674C22.5978 6.89331 22.642 6.98391 22.6499 7.08022L22.6499 7.08053L24.4595 28.9078L24.4627 28.947L24.4716 28.9853C24.4848 29.0419 24.485 29.1006 24.4721 29.1572C24.4593 29.2139 24.4337 29.2672 24.3971 29.3131C24.3604 29.3591 24.3136 29.3966 24.2598 29.4225C24.2063 29.4484 24.1474 29.462 24.0876 29.4624ZM2.29253 28.0984L2.24252 28.6823H2.82855H23.0626H23.647L23.5988 28.0999L21.9324 7.99716L21.8915 7.50362H21.3963H4.5502H4.05632L4.01418 7.9957L2.29253 28.0984Z" stroke="black" stroke-width="1.07597"/>
<path d="M7.57166 6.13326L7.51441 6.72321H8.10713H17.6992H18.2919L18.2346 6.13326C18.1067 4.81489 17.489 3.59191 16.503 2.7025C15.5171 1.81318 14.2337 1.32099 12.9032 1.32099C11.5726 1.32099 10.2892 1.81318 9.30334 2.7025C8.31735 3.59191 7.6996 4.81489 7.57166 6.13326ZM19.0903 7.11325L19.0898 7.50623H6.71703V7.11325C6.71703 5.13839 7.36744 3.49794 8.44768 2.3554C9.52583 1.21507 11.0623 0.537987 12.9036 0.537987C14.7449 0.537987 16.2814 1.21528 17.3596 2.35575C18.4398 3.49832 19.0901 5.13859 19.0903 7.11268C19.0903 7.11287 19.0903 7.11306 19.0903 7.11325Z" stroke="black" stroke-width="1.07597"/>
<path d="M7.22473 12.22C7.11813 12.22 7.0167 12.1779 6.94255 12.1043C6.86853 12.0308 6.82769 11.9321 6.82769 11.8299V7.43299C6.83264 7.33556 6.87467 7.24273 6.94663 7.17359C7.02042 7.1027 7.1199 7.0624 7.22423 7.0624C7.32857 7.0624 7.42805 7.1027 7.50184 7.17359C7.5738 7.24274 7.61583 7.33557 7.62078 7.43299V11.8299C7.62078 11.9321 7.57994 12.0308 7.50592 12.1043C7.43134 12.1783 7.33073 12.22 7.22473 12.22Z" stroke="black" stroke-width="1.07597"/>
<path d="M18.9028 12.22C18.7962 12.22 18.6948 12.1779 18.6207 12.1043C18.5466 12.0308 18.5058 11.932 18.5058 11.8299V7.43299C18.5107 7.33558 18.5528 7.24274 18.6247 7.17359C18.6985 7.1027 18.798 7.0624 18.9023 7.0624C19.0067 7.0624 19.1062 7.1027 19.18 7.17359C19.2519 7.24273 19.2939 7.33556 19.2989 7.43299V11.8299C19.2989 11.932 19.258 12.0308 19.184 12.1043C19.1094 12.1783 19.0088 12.22 18.9028 12.22Z" stroke="black" stroke-width="1.07597"/>
<path d="M2.74038 27.8119L4.62553 7.05855L21.3149 7.96689L23.4613 27.8119H2.74038Z" stroke="black" stroke-width="1.07597"/>
</svg>
