<svg width="46" height="90" viewBox="0 0 46 90" fill="none" xmlns="http://www.w3.org/2000/svg">
<path d="M21.1692 89.4051L0.715002 68.9511C-0.142971 68.2163 -0.242988 66.9251 0.49194 66.0671C1.22669 65.2091 2.51796 65.1091 3.37593 65.844C3.45591 65.9126 3.53062 65.9871 3.59899 66.0671L20.576 83.0235L20.576 2.04535C20.576 0.915804 21.4918 0 22.6215 0C23.7513 0 24.6669 0.915804 24.6669 2.04535L24.6669 83.0235L41.6233 66.0671C42.3581 65.2091 43.6493 65.1091 44.5073 65.844C45.3653 66.5789 45.4653 67.87 44.7304 68.728C44.6618 68.808 44.5873 68.8827 44.5073 68.9511L24.0531 89.4053C23.2556 90.1982 21.9671 90.1982 21.1692 89.4051Z" fill="black"/>
</svg>
