<svg width="25" height="19" viewBox="0 0 25 19" fill="none" xmlns="http://www.w3.org/2000/svg">
<path d="M12.475 0.9021C15.927 0.9021 19.3791 0.9021 22.8256 0.9021C23.8214 0.9021 24.6789 1.5823 24.9167 2.55006C24.9555 2.69937 24.961 2.85974 24.961 3.01458C24.961 7.46075 24.961 11.9014 24.961 16.3475C24.961 17.5033 24.015 18.4545 22.8533 18.46C20.563 18.4656 18.2726 18.46 15.9768 18.46C11.3741 18.46 6.77687 18.46 2.17413 18.46C1.24473 18.46 0.575342 18.0121 0.18256 17.1881C0.0608535 16.9337 0.00553214 16.6241 0.00553214 16.3365C0 11.9014 0 7.46628 0 3.03117C0 1.8588 0.945995 0.90763 2.11881 0.9021C4.6138 0.9021 7.1088 0.9021 9.60379 0.9021C10.5608 0.9021 11.5179 0.9021 12.475 0.9021ZM2.53372 2.36203C2.6167 2.45605 2.66096 2.51135 2.71075 2.56112C5.73683 5.59712 8.7629 8.63312 11.7945 11.6691C12.2481 12.1226 12.7073 12.1281 13.161 11.6747C16.1981 8.63312 19.2297 5.59159 22.2613 2.55006C22.3111 2.50029 22.3443 2.44499 22.4107 2.36756C15.7777 2.36203 9.18888 2.36203 2.53372 2.36203ZM2.52819 17.0001C9.18335 17.0001 15.7832 17.0001 22.3886 17.0001C20.2919 14.9208 18.2063 12.8581 16.1262 10.8009C15.49 11.4313 14.8206 12.1005 14.1457 12.7641C13.1886 13.7097 11.7669 13.7097 10.8098 12.7585C10.2013 12.1558 9.60379 11.5475 8.99525 10.9392C8.92334 10.8673 8.85142 10.8064 8.81269 10.7677C6.72708 12.8415 4.64699 14.8987 2.52819 17.0001ZM1.45495 3.47358C1.45495 7.599 1.45495 11.7631 1.45495 15.8941C3.53503 13.8314 5.62618 11.7576 7.72286 9.68383C5.62065 7.60453 3.5295 5.53076 1.45495 3.47358ZM23.5116 3.51782C21.4426 5.56394 19.3514 7.63218 17.2824 9.6783C19.368 11.7465 21.4536 13.8203 23.5116 15.8609C23.5116 11.7576 23.5116 7.599 23.5116 3.51782Z" fill="#C09578"/>
</svg>
