<svg width="25" height="26" viewBox="0 0 25 26" fill="none" xmlns="http://www.w3.org/2000/svg">
<path d="M12.4539 25.7678C5.55287 25.7501 -0.0294504 20.1466 0.000116915 13.2603C0.0296843 6.3623 5.61792 0.80604 12.5071 0.823773C19.414 0.841506 24.9904 6.45097 24.9609 13.3372C24.9313 20.2293 19.3372 25.7856 12.4539 25.7678ZM7.52797 8.59663C7.22047 9.89112 7.03715 11.2093 7.01941 12.5451C8.61604 12.5451 10.1772 12.5451 11.7384 12.5451C11.7384 11.3097 11.7384 10.098 11.7384 8.89217C10.3369 8.79169 8.95311 8.69711 7.52797 8.59663ZM13.2286 8.89217C13.2286 10.1098 13.2286 11.3216 13.2286 12.5451C14.8074 12.5451 16.3686 12.5451 17.9475 12.5451C17.9179 11.2033 17.7464 9.90294 17.4389 8.62618C16.0256 8.71485 14.6419 8.80351 13.2286 8.89217ZM6.00229 8.3661C5.02657 8.13558 4.0331 7.89914 3.01599 7.65679C2.12305 9.15226 1.60858 10.7778 1.49623 12.5451C2.86224 12.5451 4.19277 12.5451 5.47599 12.5451C5.6534 11.1324 5.8308 9.74926 6.00229 8.3661ZM17.9416 14.0465C16.3509 14.0465 14.7897 14.0465 13.2345 14.0465C13.2345 15.2641 13.2345 16.4581 13.2345 17.6285C14.6478 17.729 16.0256 17.8236 17.4271 17.9181C17.7287 16.6532 17.912 15.3646 17.9416 14.0465ZM11.7384 14.0406C10.1535 14.0406 8.60422 14.0406 7.02532 14.0406C7.04897 15.3587 7.22638 16.6355 7.52797 17.8945C8.94129 17.8058 10.331 17.7172 11.7384 17.6226C11.7384 16.4404 11.7384 15.2523 11.7384 14.0406ZM21.9864 18.8639C22.8557 17.3803 23.3524 15.7784 23.4648 14.0406C22.1106 14.0406 20.7741 14.0406 19.4791 14.0406C19.3017 15.4237 19.1243 16.7832 18.9528 18.1487C19.9285 18.3792 20.9397 18.6215 21.9864 18.8639ZM23.4352 12.551C23.447 12.5215 23.4529 12.5097 23.4529 12.5037C23.3583 10.8428 22.8734 9.30003 22.0515 7.86368C22.016 7.79866 21.8563 7.75137 21.7735 7.7691C21.4838 7.8223 21.2058 7.92278 20.9161 7.9878C20.2538 8.13558 19.5914 8.27153 18.9646 8.40748C19.1361 9.79655 19.3076 11.162 19.485 12.5569C20.7801 12.551 22.1106 12.551 23.4352 12.551ZM1.52579 14.0406C1.51397 14.076 1.49623 14.0938 1.50214 14.1115C1.61449 15.7252 2.06983 17.2443 2.85632 18.657C2.93911 18.8048 3.02781 18.8048 3.16974 18.7693C3.83796 18.6038 4.50618 18.4383 5.18032 18.2846C5.46416 18.2196 5.75392 18.1723 6.00229 18.125C5.82489 16.7478 5.65931 15.406 5.4819 14.0347C4.18685 14.0406 2.85632 14.0406 1.52579 14.0406ZM17.0664 7.18983C16.7648 6.51599 16.5283 5.92489 16.2385 5.35745C15.8068 4.50036 15.2569 3.72012 14.5059 3.09948C14.1274 2.7862 13.7194 2.52612 13.2226 2.4079C13.2226 4.0866 13.2226 5.72392 13.2226 7.41445C14.494 7.34351 15.7359 7.26667 17.0664 7.18983ZM7.9833 7.16028C9.23696 7.24303 10.4788 7.32578 11.7324 7.40853C11.7324 5.7121 11.7324 4.06887 11.7324 2.43154C10.0412 2.77438 8.50369 5.29834 7.9833 7.16028ZM11.7324 24.1069C11.7324 22.4341 11.7324 20.7968 11.7324 19.1062C10.467 19.1831 9.22513 19.254 7.9833 19.3249C7.9833 19.4077 7.97739 19.4372 7.9833 19.4609C8.40316 20.6313 8.93537 21.7484 9.74552 22.7119C10.2777 23.3385 10.8927 23.8527 11.7324 24.1069ZM13.2286 24.1483C15.387 23.238 16.2267 21.3583 17.0309 19.3545C15.724 19.2717 14.4881 19.189 13.2286 19.1121C13.2286 20.8086 13.2286 22.44 13.2286 24.1483ZM8.48595 23.5276C7.56345 22.3277 6.94253 20.98 6.45171 19.5259C5.57061 19.7151 4.71315 19.8924 3.80839 20.0875C5.09753 21.6834 6.62321 22.8301 8.48595 23.5276ZM18.4915 19.5673C18.0066 21.0214 17.3798 22.3454 16.475 23.5276C18.3141 22.8301 19.828 21.707 21.1053 20.1406C20.2005 19.9456 19.3549 19.7564 18.4915 19.5673ZM21.0994 6.45097C19.8516 4.90231 18.3614 3.79696 16.5756 3.06992C16.954 3.7083 17.3502 4.31712 17.6755 4.96141C18.0007 5.6057 18.255 6.28546 18.5507 6.98295C19.3786 6.81153 20.2124 6.6342 21.0994 6.45097ZM8.39725 3.09948C6.62321 3.78514 5.15075 4.87275 3.90892 6.38595C4.79594 6.58101 5.62383 6.76424 6.46945 6.94748C6.93071 5.5466 7.53979 4.26393 8.39725 3.09948Z" fill="#C09578"/>
</svg>
