<svg width="20" height="21" viewBox="0 0 20 21" fill="none" xmlns="http://www.w3.org/2000/svg">
<path d="M0 10.781C0 16.2864 4.47902 20.7654 9.9844 20.7654C15.4894 20.7654 19.9688 16.2864 19.9688 10.781C19.9688 5.27601 15.4894 0.796581 9.9844 0.796581C4.47902 0.796581 0 5.2752 0 10.781ZM10.3359 8.29795V9.92234L16.1256 9.92234V12.3294L10.3359 12.3294V13.4735H8.28963V12.3294H6.96607C6.01815 12.3294 4.53694 11.8789 4.53694 9.90022L4.54377 8.11657H6.53012V9.41117C6.53012 9.62191 6.63549 9.92153 7.08753 9.92153H8.29004V8.08761L10.3359 8.29795Z" fill="#F1E0D4"/>
</svg>
