<svg width="190" height="57" viewBox="0 0 190 57" fill="none" xmlns="http://www.w3.org/2000/svg">
<path d="M20.2908 14.066V4.2627L10.6299 4.67626L18.2572 14.066H20.2908Z" fill="#CB9274"/>
<path d="M22.3247 14.066L29.9521 4.67626L20.2908 4.2627V14.0661L22.3247 14.066Z" fill="#CB9274"/>
<path d="M13.603 0.888428C13.4634 0.888629 13.3259 0.923342 13.2028 0.98948C13.0798 1.05562 12.975 1.15113 12.8978 1.26753L10.6299 4.67661H20.2908V0.888428H13.603Z" fill="#CB9274"/>
<path d="M27.6841 1.26753C27.6068 1.15117 27.502 1.05568 27.379 0.989549C27.256 0.923416 27.1185 0.888681 26.9789 0.888428H20.2908V4.67661H29.9521L27.6841 1.26753Z" fill="#CB9274"/>
<path d="M25.1218 4.67661L23.8347 0.888428H20.1873V4.67661H25.1218Z" fill="#CB9274"/>
<path d="M21.2262 14.066L25.1216 4.67627H20.1873V14.066H21.2262Z" fill="#CB9274"/>
<path d="M39.711 16.4512C36.1732 16.4512 32.8561 17.3976 29.9997 19.0507C31.2731 19.9129 32.5552 20.9239 33.7715 21.8947C35.5958 21.1186 37.6032 20.6886 39.711 20.6886C48.0962 20.6886 54.8933 27.4861 54.8933 35.8713C54.8933 44.2559 48.0962 51.0535 39.711 51.0535C31.3259 51.0535 24.5287 44.256 24.5287 35.8713C24.5287 31.1796 26.657 26.9852 30.0007 24.2002C29.0775 23.2052 27.7391 22.3453 26.2284 21.8951C22.5683 25.4274 20.2908 30.3828 20.2908 35.8708C20.2908 46.5963 28.9855 55.291 39.711 55.291C50.4361 55.291 59.1308 46.5963 59.1308 35.8708C59.1308 25.1459 50.4365 16.4512 39.711 16.4512Z" fill="#CB9274"/>
<path d="M23.808 35.8713C23.808 30.9557 25.635 26.4678 28.6461 23.0467C27.9305 22.56 27.1093 22.1579 26.2284 21.8956C22.5683 25.4274 20.2908 30.3828 20.2908 35.8713C20.2908 46.5963 28.9855 55.291 39.711 55.291C40.3035 55.291 40.8901 55.2631 41.4694 55.2108C31.5685 54.322 23.808 46.0033 23.808 35.8713ZM41.4694 16.5312C40.8848 16.4782 40.298 16.4515 39.711 16.4512C36.1732 16.4512 32.8561 17.3976 29.9997 19.0507C30.5592 19.4298 31.1206 19.8382 31.6774 20.2591C34.4634 18.1944 37.8211 16.8586 41.4694 16.5314V16.5312Z" fill="#CB9274"/>
<path d="M24.1331 16.8323H16.4491C7.56364 18.6152 0.871094 26.461 0.871094 35.8714C0.871094 46.5964 9.56583 55.2911 20.2909 55.2911C23.829 55.2911 27.1457 54.3446 30.0025 52.6916C28.6934 51.8499 27.4021 50.9058 26.2299 49.8475C24.406 50.6236 22.3986 51.0537 20.2909 51.0537C11.9061 51.0537 5.1085 44.2561 5.1085 35.871C5.1085 27.4862 11.9061 20.6887 20.2909 20.6887C28.676 20.6887 35.4737 27.4862 35.4737 35.871C35.4737 40.5626 33.3453 44.7565 30.0017 47.5415C31.0534 48.5242 32.4308 49.4033 33.774 49.8461C37.4339 46.3144 39.7111 41.3589 39.7111 35.871C39.7111 26.461 33.0182 18.6154 24.1331 16.8323Z" fill="#CB9274"/>
<path d="M4.38781 35.8714C4.38781 26.4615 11.0809 18.6154 19.9657 16.8323H16.449C7.56376 18.6152 0.871094 26.461 0.871094 35.8714C0.871094 46.5964 9.56582 55.2911 20.2909 55.2911C20.8763 55.2904 21.4615 55.2634 22.0445 55.2104C12.1457 54.3194 4.38781 46.0021 4.38781 35.8714Z" fill="#CB9274"/>
<path d="M15.4604 4.67661L16.7206 0.888428H20.2909V4.67661H15.4604Z" fill="#CB9274"/>
<path d="M20.2909 14.066V4.67627H15.4604L19.2743 14.066H20.2909Z" fill="#CB9274"/>
<path d="M23.2472 13.9666H17.3351C16.7567 13.9666 16.2874 14.4354 16.2874 15.0143V16.2754C16.2874 16.8536 16.7567 17.3225 17.3351 17.3225H23.2472C23.8259 17.3225 24.2948 16.8536 24.2948 16.2754V15.0143C24.2948 14.7364 24.1844 14.4699 23.9879 14.2734C23.7914 14.0769 23.5249 13.9666 23.2471 13.9666H23.2472Z" fill="#CB9274"/>
<path d="M19.8045 16.2754V15.0143C19.8045 14.4354 20.2734 13.9666 20.8523 13.9666H17.3351C16.7567 13.9666 16.2874 14.4354 16.2874 15.0143V16.2754C16.2874 16.8536 16.7567 17.3225 17.3351 17.3225H20.8523C20.2734 17.3225 19.8045 16.8536 19.8045 16.2754Z" fill="#CB9274"/>
<path d="M30.014 53.6861C43.4844 61.0501 60.0186 51.2333 60.0186 35.8619C60.0186 25.4491 52.1385 16.754 41.8626 15.6752C41.3791 15.6253 40.9469 15.9751 40.8965 16.4577C40.8844 16.5725 40.895 16.6886 40.9278 16.7993C40.9605 16.9101 41.0148 17.0133 41.0875 17.103C41.1602 17.1928 41.2498 17.2673 41.3513 17.3224C41.4529 17.3774 41.5642 17.4119 41.6791 17.4239C51.1315 18.4166 58.2603 26.343 58.2603 35.8619C58.2603 46.0849 49.9429 54.4023 39.7192 54.4023C29.4961 54.4023 21.1786 46.085 21.1786 35.8619C21.1786 30.9837 23.0372 26.4175 26.4253 22.9385C27.1979 23.3064 27.9359 23.7429 28.6305 24.2426C21.6694 30.8816 22.089 42.0843 29.4475 48.2078C39.853 56.8722 55.7812 49.4711 55.7812 35.8619C55.7812 24.6486 44.4851 16.824 33.9711 20.8596C33.2758 20.2269 32.5382 19.6422 31.7636 19.1095C33.6492 18.2106 35.6599 17.645 37.7598 17.4244C37.9917 17.4 38.2044 17.2845 38.3511 17.1033C38.4979 16.9221 38.5667 16.69 38.5424 16.4581C38.4915 15.9752 38.0571 15.6253 37.5762 15.6757C34.9007 15.9568 32.3574 16.7494 30.0084 18.0329C28.4871 17.202 26.8649 16.5708 25.182 16.155V15.0048C25.182 14.225 24.716 13.5532 24.0479 13.2501L30.6408 5.19509C30.8642 4.92266 30.9205 4.51648 30.6907 4.14887L28.4227 0.76581C28.2649 0.529851 28.0514 0.336477 27.801 0.202845C27.5505 0.0692125 27.271 -0.00054644 26.9872 -0.000243156H13.6112C13.3274 -0.00054644 13.0478 0.0692125 12.7974 0.202845C12.547 0.336477 12.3335 0.529851 12.1757 0.76581L9.90776 4.14887C9.90776 4.14922 9.9073 4.14969 9.9073 4.15016C9.6916 4.4744 9.71903 4.90438 9.9577 5.19509L16.551 13.2507C15.8829 13.5532 15.4162 14.225 15.4162 15.0048V16.1546C6.43184 18.3731 0 26.5217 0 35.8619C0 51.2005 16.4966 61.0634 30.014 53.6861ZM24.6797 49.4807C15.4513 52.4526 5.99624 45.5249 5.99624 35.8619C5.99624 26.2175 15.4277 19.2703 24.6688 22.242C17.6093 30.0159 17.7169 41.7985 24.6797 49.4807ZM30.0043 25.3653C36.1604 31.0612 36.1068 40.7206 30.0144 46.3579C23.8582 40.662 23.9123 31.0026 30.0043 25.3653ZM23.2552 16.4339H17.3432C17.2538 16.4339 17.1747 16.3574 17.1747 16.2659V15.0048C17.1747 14.9118 17.2502 14.8362 17.3432 14.8362H23.2552C23.3482 14.8362 23.4237 14.9118 23.4237 15.0048V16.2659C23.4237 16.3601 23.3427 16.4339 23.2552 16.4339ZM21.1786 11.9721V5.51745H23.8198L21.1786 11.9721ZM19.4202 11.9721L16.7786 5.51745H19.4202V11.9721ZM23.3353 11.3443L25.7201 5.51745H28.1044L23.3353 11.3443ZM28.3123 3.7591H25.7623L25.0918 1.7581H26.9711L28.3123 3.7591ZM23.9077 3.7591H21.1786V1.7581H23.2373L23.9077 3.7591ZM19.4202 1.7581V3.7591H16.6907L17.3614 1.7581H19.4202ZM13.6277 1.7581H15.507L14.8362 3.7591H12.2861L13.6277 1.7581ZM14.8788 5.51745L17.2631 11.3443L12.494 5.51745H14.8788ZM16.1586 17.7857C16.4966 18.0503 16.9229 18.1927 17.3432 18.1927H23.2552C23.6737 18.1927 24.1004 18.0517 24.4398 17.7857C31.8135 19.467 37.5102 25.5494 38.6358 33.1066C38.6528 33.2208 38.6922 33.3306 38.7516 33.4295C38.811 33.5285 38.8893 33.6149 38.9821 33.6836C39.0749 33.7523 39.1803 33.802 39.2923 33.83C39.4043 33.858 39.5207 33.8636 39.6349 33.8465C39.8655 33.8122 40.0731 33.6876 40.2119 33.5003C40.3506 33.3129 40.4093 33.0781 40.375 32.8475C39.7733 28.8069 37.975 25.1441 35.3453 22.2405C44.5821 19.271 54.0224 26.2102 54.0224 35.8619C54.0224 45.5058 44.5904 52.453 35.3495 49.4812C38.4348 46.0762 40.2719 41.7418 40.5577 37.1343C40.572 36.9016 40.4933 36.6727 40.3389 36.4979C40.1845 36.3232 39.9671 36.2169 39.7343 36.2024C39.248 36.1713 38.8328 36.5409 38.8024 37.0258C38.5281 41.4542 36.6837 45.6065 33.593 48.7843C32.8201 48.4171 32.082 47.9807 31.3876 47.4807C34.5609 44.4543 36.361 40.2782 36.361 35.8619C36.361 27.0133 29.1667 19.7999 20.299 19.7999C11.4427 19.7999 4.23741 27.0051 4.23741 35.8619C4.23741 47.074 15.5326 54.8991 26.0466 50.8636C26.7412 51.4967 27.4786 52.0812 28.2537 52.6128C15.9273 58.4667 1.75836 49.4011 1.75836 35.8619C1.75836 27.2198 7.78531 19.6947 16.1586 17.7857Z" fill="#CB9274"/>
<path d="M69.5509 14.5113H75.7902V43.89H92.1008V48.9011H69.5509V14.5113ZM107.762 49.3924C104.651 49.3924 101.949 48.6882 99.6562 47.2799C97.3636 45.8388 95.6113 43.7918 94.3995 41.1388C93.1877 38.4859 92.5818 35.3417 92.5818 31.7062C92.5818 28.0707 93.1877 24.9265 94.3995 22.2736C95.6113 19.6206 97.3636 17.59 99.6562 16.1817C101.949 14.7406 104.651 14.02 107.762 14.02C110.874 14.02 113.56 14.7406 115.819 16.1817C118.112 17.59 119.864 19.6206 121.076 22.2736C122.288 24.9265 122.894 28.0707 122.894 31.7062C122.894 35.3417 122.288 38.4859 121.076 41.1388C119.864 43.7918 118.112 45.8388 115.819 47.2799C113.56 48.6882 110.874 49.3924 107.762 49.3924ZM107.762 44.4304C110.514 44.4304 112.675 43.3005 114.247 41.0406C115.852 38.7807 116.655 35.6692 116.655 31.7062C116.655 27.7432 115.852 24.6317 114.247 22.3718C112.675 20.0792 110.514 18.9328 107.762 18.9328C104.978 18.9328 102.784 20.0792 101.179 22.3718C99.6071 24.6317 98.8211 27.7432 98.8211 31.7062C98.8211 35.6692 99.6071 38.7807 101.179 41.0406C102.784 43.3005 104.978 44.4304 107.762 44.4304ZM153.632 30.5271V48.9011H149.063L148.375 46.8869C146.213 48.5572 143.56 49.3924 140.416 49.3924C137.436 49.3924 134.865 48.6882 132.703 47.2799C130.541 45.8715 128.887 43.8409 127.741 41.188C126.595 38.535 126.022 35.3745 126.022 31.7062C126.022 28.1362 126.66 25.0248 127.938 22.3718C129.215 19.6861 131.016 17.6228 133.342 16.1817C135.7 14.7406 138.451 14.02 141.595 14.02C144.314 14.02 146.688 14.5277 148.719 15.543C150.75 16.5583 152.24 17.983 153.19 19.8172L149.701 23.0105C148.883 21.7004 147.785 20.7178 146.41 20.0628C145.034 19.375 143.462 19.0311 141.694 19.0311C138.68 19.0311 136.355 20.1283 134.717 22.3227C133.08 24.5171 132.261 27.6449 132.261 31.7062C132.261 35.8985 133.031 39.1246 134.57 41.3845C136.109 43.6116 138.304 44.7252 141.153 44.7252C143.675 44.7252 145.788 44.1193 147.491 42.9075V34.9487H139.827V30.5271H153.632ZM173.059 49.3924C169.947 49.3924 167.245 48.6882 164.953 47.2799C162.66 45.8388 160.908 43.7918 159.696 41.1388C158.484 38.4859 157.878 35.3417 157.878 31.7062C157.878 28.0707 158.484 24.9265 159.696 22.2736C160.908 19.6206 162.66 17.59 164.953 16.1817C167.245 14.7406 169.947 14.02 173.059 14.02C176.17 14.02 178.856 14.7406 181.116 16.1817C183.409 17.59 185.161 19.6206 186.373 22.2736C187.585 24.9265 188.19 28.0707 188.19 31.7062C188.19 35.3417 187.585 38.4859 186.373 41.1388C185.161 43.7918 183.409 45.8388 181.116 47.2799C178.856 48.6882 176.17 49.3924 173.059 49.3924ZM173.059 44.4304C175.81 44.4304 177.972 43.3005 179.544 41.0406C181.149 38.7807 181.951 35.6692 181.951 31.7062C181.951 27.7432 181.149 24.6317 179.544 22.3718C177.972 20.0792 175.81 18.9328 173.059 18.9328C170.275 18.9328 168.081 20.0792 166.476 22.3718C164.904 24.6317 164.118 27.7432 164.118 31.7062C164.118 35.6692 164.904 38.7807 166.476 41.0406C168.081 43.3005 170.275 44.4304 173.059 44.4304Z" fill="#F1E0D4"/>
</svg>
