<svg width="31" height="28" viewBox="0 0 31 28" fill="none" xmlns="http://www.w3.org/2000/svg">
<mask id="path-1-inside-1_1_375" fill="white">
<path d="M15.8873 5.11555L14.5434 3.74361C11.389 0.523178 5.6048 1.63451 3.5168 5.68331C2.53653 7.58765 2.31536 10.3371 4.10534 13.8461C5.82972 17.2247 9.41717 21.2717 15.8873 25.6798C22.3575 21.2717 25.9431 17.2247 27.6693 13.8461C29.4593 10.3353 29.24 7.58765 28.2579 5.68331C26.1699 1.63451 20.3857 0.521316 17.2312 3.74175L15.8873 5.11555ZM15.8873 27.9229C-12.8517 9.06197 7.03865 -5.65893 15.5575 2.12781C15.6699 2.23019 15.7805 2.3363 15.8873 2.44613C15.9931 2.3364 16.1031 2.23083 16.2172 2.12967C24.7341 -5.66265 44.6263 9.06011 15.8873 27.9229Z"/>
</mask>
<path d="M15.8873 5.11555L8.20088 12.6449L15.8926 20.4971L23.5789 12.6396L15.8873 5.11555ZM14.5434 3.74361L6.85687 11.2728L6.85699 11.2729L14.5434 3.74361ZM3.5168 5.68331L-6.04618 0.75162L-6.04987 0.758794L3.5168 5.68331ZM4.10534 13.8461L-5.47937 18.7354L-5.47837 18.7374L4.10534 13.8461ZM15.8873 25.6798L9.82917 34.5719L15.8873 38.6993L21.9455 34.5719L15.8873 25.6798ZM27.6693 13.8461L37.2509 18.7416L37.2551 18.7333L27.6693 13.8461ZM28.2579 5.68331L18.6949 10.615L18.695 10.6153L28.2579 5.68331ZM17.2312 3.74175L9.54465 -3.78744L9.53967 -3.78235L17.2312 3.74175ZM15.8873 27.9229L9.98373 36.9184L15.8876 40.793L21.7914 36.9181L15.8873 27.9229ZM15.5575 2.12781L8.29807 10.0697L8.306 10.0769L8.31395 10.0842L15.5575 2.12781ZM15.8873 2.44613L8.17468 9.94859L15.9233 17.9143L23.6348 9.91267L15.8873 2.44613ZM16.2172 2.12967L23.3559 10.1803L23.4185 10.1247L23.4803 10.0682L16.2172 2.12967ZM23.5738 -2.41376L22.2299 -3.7857L6.85699 11.2729L8.20088 12.6449L23.5738 -2.41376ZM22.23 -3.78558C13.4333 -12.7662 -0.937825 -9.15391 -6.04617 0.751621L13.0798 10.615C12.4235 11.8877 11.3563 12.4282 10.5516 12.5743C9.71675 12.7258 8.16013 12.6033 6.85687 11.2728L22.23 -3.78558ZM-6.04987 0.758794C-8.86725 6.232 -8.57347 12.6699 -5.47937 18.7354L13.69 8.95676C13.3957 8.37983 13.5107 8.35157 13.5259 8.80093C13.542 9.27885 13.4301 9.93448 13.0835 10.6078L-6.04987 0.758794ZM-5.47837 18.7374C-2.64748 24.284 2.49045 29.5721 9.82917 34.5719L21.9455 16.7876C16.3439 12.9713 14.3069 10.1654 13.689 8.95481L-5.47837 18.7374ZM21.9455 34.5719C29.2869 29.5703 34.4195 24.2832 37.2509 18.7416L18.0878 8.95059C17.4667 10.1662 15.4281 12.9731 9.82917 16.7876L21.9455 34.5719ZM37.2551 18.7333C40.3443 12.6742 40.6484 6.23408 37.8207 0.751355L18.695 10.6153C18.3458 9.93813 18.2333 9.27843 18.2496 8.79832C18.2648 8.34796 18.38 8.37751 18.0836 8.95882L37.2551 18.7333ZM37.8209 0.751621C32.715 -9.14914 18.345 -12.7718 9.54465 -3.78744L24.9178 11.2709C23.6134 12.6026 22.0554 12.7246 21.2208 12.5729C20.4166 12.4268 19.3507 11.8866 18.6949 10.615L37.8209 0.751621ZM9.53967 -3.78235L8.19578 -2.40854L23.5789 12.6396L24.9228 11.2658L9.53967 -3.78235ZM21.7909 18.9274C15.474 14.7817 12.9393 11.5594 12.0498 9.8572C11.292 8.40717 11.9492 8.65644 11.4403 9.71046C11.0806 10.4555 10.5529 10.6701 10.3039 10.7253C9.99102 10.7947 9.11044 10.8122 8.29807 10.0697L22.8168 -5.81406C12.7477 -15.0179 -2.65759 -10.5848 -7.93889 0.354495C-10.8928 6.47302 -10.3521 13.4523 -7.02264 19.8237C-3.82495 25.943 1.93112 31.6336 9.98373 36.9184L21.7909 18.9274ZM8.31395 10.0842C8.2876 10.0602 8.23913 10.0148 8.17468 9.94859L23.6 -5.05633C23.3219 -5.34225 23.0522 -5.5998 22.801 -5.82855L8.31395 10.0842ZM23.6348 9.91267C23.5452 10.0056 23.4522 10.0949 23.3559 10.1803L9.07858 -5.92092C8.75411 -5.6332 8.44097 -5.33281 8.1399 -5.02042L23.6348 9.91267ZM23.4803 10.0682C22.6684 10.811 21.7868 10.7945 21.4722 10.7248C21.2218 10.6693 20.6936 10.454 20.3338 9.70896C19.825 8.65508 20.4821 8.40613 19.7243 9.85655C18.8348 11.559 16.3001 14.7816 9.98332 18.9276L21.7914 36.9181C29.8441 31.6328 35.6 25.9415 38.7974 19.8218C42.1265 13.45 42.6668 6.47065 39.7127 0.35227C34.4307 -10.5874 19.0222 -15.0203 8.95412 -5.80882L23.4803 10.0682Z" fill="black" mask="url(#path-1-inside-1_1_375)"/>
</svg>
