<svg width="20" height="21" viewBox="0 0 20 21" fill="none" xmlns="http://www.w3.org/2000/svg">
<path d="M9.98441 8.93249C11.0399 8.93249 11.8955 9.7881 11.8955 10.8436C11.8955 11.899 11.0399 12.7546 9.98441 12.7546C8.92895 12.7546 8.07333 11.899 8.07333 10.8436C8.07333 9.7881 8.92895 8.93249 9.98441 8.93249Z" fill="#F1E0D4"/>
<path d="M6.60364 6.37356C6.35461 6.46546 6.12935 6.612 5.9444 6.80242C5.75395 6.98734 5.6074 7.21261 5.51554 7.46166C5.43711 7.66369 5.3437 7.96712 5.31827 8.52613C5.2907 9.13081 5.28473 9.31209 5.28473 10.8429C5.28473 12.3739 5.29054 12.5551 5.31811 13.1597C5.3437 13.7186 5.43707 14.0223 5.51554 14.2241C5.60737 14.4732 5.75392 14.6985 5.9444 14.8834C6.12935 15.0738 6.35461 15.2204 6.60364 15.3124C6.80567 15.3908 7.1093 15.4842 7.66827 15.5097C8.27279 15.5372 8.45407 15.5432 9.98504 15.5432C11.5159 15.5432 11.6971 15.5372 12.3018 15.5097C12.8608 15.4842 13.1643 15.3908 13.3663 15.3124C13.6153 15.2205 13.8406 15.0739 14.0255 14.8835C14.216 14.6986 14.3625 14.4733 14.4544 14.2243C14.533 14.0223 14.6264 13.7186 14.6518 13.1597C14.6794 12.5551 14.6852 12.374 14.6852 10.8431C14.6852 9.31193 14.6794 9.13065 14.6518 8.52629C14.6264 7.96732 14.533 7.66365 14.4544 7.46166C14.359 7.21439 14.2129 6.98983 14.0255 6.80243C13.8381 6.61503 13.6135 6.46894 13.3663 6.37356C13.1643 6.29512 12.8608 6.20172 12.3018 6.17613C11.6971 6.14856 11.5159 6.14275 9.98504 6.14275C8.45407 6.14275 8.27279 6.14856 7.66827 6.17613C7.1093 6.20156 6.80563 6.29497 6.60364 6.37356ZM12.9289 10.8429C12.9289 12.4689 11.6109 13.7871 9.98488 13.7871C8.35887 13.7871 7.04089 12.4689 7.04089 10.8429C7.04089 9.217 8.35887 7.89891 9.98488 7.89891C11.6109 7.89891 12.9289 9.217 12.9289 10.8429ZM7.6125 7.78249C7.6125 8.16244 7.30442 8.47047 6.92451 8.47047C6.5446 8.47047 6.23648 8.16244 6.23648 7.78249C6.23648 7.40253 6.54452 7.0945 6.92447 7.0945C7.30442 7.09466 7.6125 7.40253 7.6125 7.78249Z" fill="#F1E0D4"/>
<path d="M0 10.8435C0 16.3569 4.47102 20.8279 9.9844 20.8279C15.4978 20.8279 19.9688 16.3569 19.9688 10.8435C19.9688 5.3301 15.4978 0.859081 9.9844 0.859081C4.47102 0.859081 0 5.3301 0 10.8435ZM12.3481 5.14485C12.9584 5.17254 13.3751 5.26961 13.7398 5.4113C14.1207 5.5586 14.4666 5.78383 14.7553 6.07258C15.044 6.36132 15.2693 6.7072 15.4166 7.08806C15.5583 7.45265 15.6551 7.86946 15.683 8.47964C15.7109 9.09098 15.7176 9.2863 15.7176 10.8433C15.7176 12.4005 15.7109 12.5957 15.683 13.2072C15.6551 13.8174 15.5583 14.2342 15.4166 14.5988C15.2726 14.9814 15.0469 15.328 14.7552 15.6143C14.4689 15.9059 14.1223 16.1316 13.7398 16.2755C13.3752 16.4172 12.9584 16.5142 12.3482 16.542C11.7367 16.5702 11.5414 16.5767 9.9844 16.5767C8.42738 16.5767 8.23206 16.5702 7.62071 16.5421C7.01038 16.5144 6.59372 16.4175 6.22898 16.2758C5.84641 16.1318 5.49987 15.9061 5.21357 15.6143C4.92185 15.328 4.69614 14.9815 4.55222 14.5989C4.41053 14.2342 4.31365 13.8175 4.28576 13.2072C4.25788 12.5958 4.25117 12.4005 4.25117 10.8435C4.25117 9.28646 4.25788 9.09114 4.28588 8.47979C4.31365 7.86946 4.41053 7.4528 4.55207 7.08806C4.69607 6.70545 4.9218 6.35885 5.21353 6.07246C5.49989 5.78083 5.84643 5.55519 6.22898 5.4113C6.59372 5.26946 7.01038 5.17258 7.62071 5.14469C8.23206 5.1168 8.42738 5.11025 9.9844 5.11025C11.5414 5.11025 11.7367 5.1168 12.3481 5.14485Z" fill="#F1E0D4"/>
</svg>
