<svg width="20" height="21" viewBox="0 0 20 21" fill="none" xmlns="http://www.w3.org/2000/svg">
<path d="M0 10.9065C0 16.4198 4.47102 20.8909 9.9844 20.8909C15.4978 20.8909 19.9688 16.4198 19.9688 10.9065C19.9688 5.39309 15.4978 0.92207 9.9844 0.92207C4.47102 0.92207 0 5.39309 0 10.9065ZM15.0936 13.8078V16.2395H7.77793V13.8078L15.0936 13.8078ZM6.77894 15.0236V15.0394C6.77894 15.8554 6.21724 16.3831 5.51521 16.3831C4.79735 16.3831 4.25117 15.8393 4.25117 15.0074C4.25117 14.1756 4.79735 13.6637 5.51521 13.6479C6.21724 13.6479 6.77898 14.1756 6.77898 15.0236H6.77894ZM15.0936 5.03974L15.0936 7.47109L11.1799 7.47109C10.1963 7.47109 9.52551 7.82316 9.52551 8.703C9.52551 9.37472 9.978 9.77476 10.4148 9.95058C10.5711 10.0149 10.7896 10.0306 11.0082 10.0306L15.0936 10.0306V12.4621C15.0936 12.4621 8.46424 12.4302 7.77793 12.4621V10.0306H8.81373C8.31529 9.70744 7.60624 9.12925 7.60624 7.83915C7.60624 6.23931 8.65179 5.03974 10.8988 5.03974L15.0936 5.03974Z" fill="#F1E0D4"/>
</svg>
