<svg width="205" height="60" viewBox="0 0 205 60" fill="none" xmlns="http://www.w3.org/2000/svg">
<path d="M21.8179 15.0218V4.55273L11.4299 4.99439L19.6313 15.0218H21.8179Z" fill="#CB9274"/>
<path d="M24.0047 15.0218L32.2061 4.99439L21.8176 4.55273V15.0219L24.0047 15.0218Z" fill="#CB9274"/>
<path d="M14.6269 0.949219C14.4767 0.949434 14.3288 0.986504 14.1965 1.05713C14.0643 1.12776 13.9516 1.22976 13.8686 1.35407L11.4299 4.99469H21.8179V0.949219H14.6269Z" fill="#CB9274"/>
<path d="M29.7674 1.35407C29.6843 1.2298 29.5716 1.12783 29.4394 1.05721C29.3071 0.986583 29.1593 0.949489 29.0091 0.949219H21.8176V4.99469H32.2061L29.7674 1.35407Z" fill="#CB9274"/>
<path d="M27.012 4.99469L25.628 0.949219H21.7061V4.99469H27.012Z" fill="#CB9274"/>
<path d="M22.8235 15.0216L27.012 4.99414H21.7063V15.0216H22.8235Z" fill="#CB9274"/>
<path d="M42.6995 17.5684C38.8954 17.5684 35.3287 18.5791 32.2573 20.3445C33.6266 21.2652 35.0051 22.3449 36.313 23.3816C38.2745 22.5528 40.4331 22.0935 42.6995 22.0935C51.7158 22.0935 59.0244 29.3528 59.0244 38.3075C59.0244 47.2616 51.7158 54.5208 42.6995 54.5208C33.6833 54.5208 26.3745 47.2617 26.3745 38.3075C26.3745 33.2971 28.663 28.8178 32.2583 25.8437C31.2657 24.7811 29.8265 23.8628 28.2021 23.3821C24.2666 27.1543 21.8176 32.4462 21.8176 38.307C21.8176 49.7609 31.1668 59.0461 42.6995 59.0461C54.2318 59.0461 63.5809 49.7609 63.5809 38.307C63.5809 26.8536 54.2323 17.5684 42.6995 17.5684Z" fill="#CB9274"/>
<path d="M25.5995 38.3075C25.5995 33.058 27.5641 28.2653 30.8019 24.6119C30.0323 24.0921 29.1494 23.6627 28.2021 23.3826C24.2666 27.1543 21.8176 32.4462 21.8176 38.3075C21.8176 49.7609 31.1668 59.0461 42.6995 59.0461C43.3366 59.0461 43.9673 59.0163 44.5902 58.9605C33.9442 58.0113 25.5995 49.1276 25.5995 38.3075ZM44.5902 17.6539C43.9616 17.5972 43.3307 17.5687 42.6995 17.5684C38.8954 17.5684 35.3287 18.5791 32.2573 20.3445C32.8589 20.7493 33.4626 21.1855 34.0613 21.6349C37.0569 19.43 40.6674 18.0035 44.5902 17.654V17.6539Z" fill="#CB9274"/>
<path d="M25.9488 17.9756H17.6865C8.13229 19.8796 0.936035 28.2583 0.936035 38.3079C0.936035 49.7613 10.2852 59.0465 21.8174 59.0465C25.6219 59.0465 29.1881 58.0357 32.26 56.2704C30.8523 55.3715 29.4639 54.3633 28.2034 53.2331C26.2423 54.062 24.0837 54.5213 21.8174 54.5213C12.8016 54.5213 5.49237 47.2619 5.49237 38.3074C5.49237 29.3531 12.8016 22.0939 21.8174 22.0939C30.8337 22.0939 38.143 29.3531 38.143 38.3074C38.143 43.3176 35.8543 47.7964 32.2591 50.7705C33.39 51.8199 34.8711 52.7588 36.3153 53.2316C40.2507 49.4601 42.6993 44.168 42.6993 38.3074C42.6993 28.2583 35.5027 19.8798 25.9488 17.9756Z" fill="#CB9274"/>
<path d="M4.71743 38.3079C4.71743 28.2588 11.9143 19.8798 21.4678 17.9756H17.6864C8.13241 19.8796 0.936035 28.2583 0.936035 38.3079C0.936035 49.7613 10.2852 59.0465 21.8174 59.0465C22.4469 59.0457 23.0761 59.0169 23.7031 58.9603C13.0592 58.0088 4.71743 49.1266 4.71743 38.3079Z" fill="#CB9274"/>
<path d="M16.6238 4.99469L17.9788 0.949219H21.8178V4.99469H16.6238Z" fill="#CB9274"/>
<path d="M21.8178 15.0216V4.99414H16.6238L20.7247 15.0216H21.8178Z" fill="#CB9274"/>
<path d="M24.9966 14.915H18.6395C18.0176 14.915 17.5129 15.4158 17.5129 16.0339V17.3807C17.5129 17.9982 18.0176 18.499 18.6395 18.499H24.9966C25.6189 18.499 26.1231 17.9982 26.1231 17.3807V16.0339C26.1231 15.7372 26.0044 15.4526 25.7931 15.2428C25.5818 15.0329 25.2952 14.915 24.9965 14.915H24.9966Z" fill="#CB9274"/>
<path d="M21.2948 17.3807V16.0339C21.2948 15.4158 21.799 14.915 22.4214 14.915H18.6395C18.0176 14.915 17.5129 15.4158 17.5129 16.0339V17.3807C17.5129 17.9982 18.0176 18.499 18.6395 18.499H22.4214C21.799 18.499 21.2948 17.9982 21.2948 17.3807Z" fill="#CB9274"/>
<path d="M32.273 57.3326C46.7572 65.1968 64.5359 54.7133 64.5359 38.2978C64.5359 27.1779 56.0626 17.8922 45.0134 16.7401C44.4934 16.6868 44.0287 17.0603 43.9745 17.5757C43.9615 17.6983 43.9729 17.8223 44.0081 17.9406C44.0434 18.0588 44.1017 18.169 44.1799 18.2649C44.258 18.3607 44.3544 18.4403 44.4636 18.4991C44.5727 18.5579 44.6925 18.5948 44.816 18.6076C54.9799 19.6677 62.6452 28.1324 62.6452 38.2978C62.6452 49.2152 53.7018 58.0975 42.7086 58.0975C31.7161 58.0975 22.7726 49.2153 22.7726 38.2978C22.7726 33.0883 24.7711 28.212 28.4142 24.4967C29.2449 24.8896 30.0385 25.3557 30.7854 25.8893C23.3003 32.9793 23.7515 44.9429 31.6638 51.4823C42.8524 60.7352 59.9795 52.8314 59.9795 38.2978C59.9795 26.323 47.8332 17.9669 36.5279 22.2766C35.7802 21.6009 34.9872 20.9765 34.1542 20.4076C36.1818 19.4477 38.3438 18.8437 40.6018 18.6081C40.8511 18.582 41.0798 18.4587 41.2376 18.2652C41.3954 18.0717 41.4693 17.8238 41.4432 17.5762C41.3885 17.0604 40.9214 16.6868 40.4044 16.7406C37.5275 17.0408 34.7928 17.8873 32.2669 19.2579C30.6311 18.3706 28.8868 17.6965 27.0773 17.2525V16.0242C27.0773 15.1914 26.5762 14.474 25.8578 14.1503L32.9469 5.54819C33.1872 5.25726 33.2477 4.8235 33.0006 4.43092L30.5619 0.818084C30.3923 0.566098 30.1626 0.359591 29.8934 0.216882C29.6241 0.074174 29.3235 -0.000322832 29.0183 1.05158e-06H14.6356C14.3304 -0.000322832 14.0299 0.074174 13.7606 0.216882C13.4914 0.359591 13.2617 0.566098 13.0921 0.818084L10.6535 4.43092C10.6535 4.43129 10.653 4.43179 10.653 4.43229C10.421 4.77856 10.4505 5.23773 10.7072 5.54819L17.7966 14.1509C17.0783 14.474 16.5765 15.1914 16.5765 16.0242V17.2521C6.91593 19.6212 0 28.3233 0 38.2978C0 54.6782 17.7382 65.211 32.273 57.3326ZM26.5372 52.8416C16.6142 56.0153 6.44754 48.6171 6.44754 38.2978C6.44754 27.9985 16.5889 20.5794 26.5255 23.7529C18.9346 32.0548 19.0503 44.6377 26.5372 52.8416ZM32.2625 27.0884C38.882 33.1711 38.8244 43.4866 32.2733 49.5067C25.6539 43.424 25.712 33.1085 32.2625 27.0884ZM25.0055 17.5503H18.6485C18.5524 17.5503 18.4673 17.4687 18.4673 17.3709V16.0242C18.4673 15.9249 18.5485 15.8441 18.6485 15.8441H25.0055C25.1055 15.8441 25.1866 15.9249 25.1866 16.0242V17.3709C25.1866 17.4715 25.0995 17.5503 25.0055 17.5503ZM22.7726 12.7855V5.89245H25.6125L22.7726 12.7855ZM20.8819 12.7855L18.0414 5.89245H20.8819V12.7855ZM25.0916 12.115L27.6559 5.89245H30.2197L25.0916 12.115ZM30.4432 4.01468H27.7013L26.9803 1.87777H29.0011L30.4432 4.01468ZM25.7071 4.01468H22.7726V1.87777H24.9862L25.7071 4.01468ZM20.8819 1.87777V4.01468H17.9469L18.6681 1.87777H20.8819ZM14.6534 1.87777H16.6741L15.9528 4.01468H13.2108L14.6534 1.87777ZM15.9986 5.89245L18.5624 12.115L13.4343 5.89245H15.9986ZM17.3748 18.9939C17.7382 19.2765 18.1966 19.4286 18.6485 19.4286H25.0055C25.4555 19.4286 25.9143 19.278 26.2792 18.9939C34.2079 20.7894 40.3334 27.2849 41.5437 35.3554C41.562 35.4774 41.6043 35.5946 41.6681 35.7003C41.732 35.806 41.8163 35.8982 41.916 35.9716C42.0158 36.0449 42.1291 36.0981 42.2496 36.1279C42.37 36.1578 42.4952 36.1638 42.618 36.1456C42.866 36.1089 43.0891 35.9759 43.2383 35.7758C43.3876 35.5757 43.4507 35.3249 43.4137 35.0787C42.7667 30.7637 40.8332 26.8521 38.0056 23.7513C47.9375 20.5801 58.0883 27.9906 58.0883 38.2978C58.0883 48.5967 47.9465 56.0158 38.01 52.8421C41.3275 49.2059 43.3029 44.5771 43.6102 39.6567C43.6256 39.4081 43.541 39.1637 43.3749 38.9771C43.2089 38.7905 42.9751 38.6769 42.7249 38.6615C42.2019 38.6283 41.7555 39.023 41.7228 39.5408C41.4279 44.27 39.4446 48.7043 36.1213 52.0979C35.2903 51.7057 34.4966 51.2398 33.75 50.7057C37.1621 47.4738 39.0976 43.0141 39.0976 38.2978C39.0976 28.8482 31.3619 21.145 21.8267 21.145C12.3039 21.145 4.55633 28.8395 4.55633 38.2978C4.55633 50.2715 16.7017 58.6281 28.0069 54.3184C28.7538 54.9946 29.5468 55.6187 30.3801 56.1865C17.1261 62.4379 1.8907 52.7566 1.8907 38.2978C1.8907 29.0688 8.37126 21.0326 17.3748 18.9939Z" fill="#CB9274"/>
<path d="M75.0332 15.639H81.7465V47.2498H99.2963V52.6416H75.0332V15.639ZM116.148 53.1702C112.8 53.1702 109.893 52.4125 107.426 50.8972C104.959 49.3466 103.074 47.1441 101.77 44.2896C100.466 41.4351 99.8138 38.052 99.8138 34.1403C99.8138 30.2286 100.466 26.8455 101.77 23.991C103.074 21.1366 104.959 18.9516 107.426 17.4363C109.893 15.8857 112.8 15.1104 116.148 15.1104C119.496 15.1104 122.385 15.8857 124.817 17.4363C127.284 18.9516 129.169 21.1366 130.473 23.991C131.777 26.8455 132.429 30.2286 132.429 34.1403C132.429 38.052 131.777 41.4351 130.473 44.2896C129.169 47.1441 127.284 49.3466 124.817 50.8972C122.385 52.4125 119.496 53.1702 116.148 53.1702ZM116.148 47.8313C119.108 47.8313 121.434 46.6155 123.125 44.1839C124.852 41.7523 125.716 38.4044 125.716 34.1403C125.716 29.8762 124.852 26.5284 123.125 24.0968C121.434 21.6299 119.108 20.3965 116.148 20.3965C113.152 20.3965 110.791 21.6299 109.064 24.0968C107.373 26.5284 106.527 29.8762 106.527 34.1403C106.527 38.4044 107.373 41.7523 109.064 44.1839C110.791 46.6155 113.152 47.8313 116.148 47.8313ZM165.502 32.8717V52.6416H160.586L159.846 50.4743C157.52 52.2716 154.666 53.1702 151.282 53.1702C148.076 53.1702 145.309 52.4125 142.983 50.8972C140.657 49.3819 138.878 47.1969 137.644 44.3425C136.411 41.488 135.794 38.0873 135.794 34.1403C135.794 30.2991 136.481 26.9512 137.856 24.0968C139.23 21.207 141.168 18.9869 143.67 17.4363C146.208 15.8857 149.168 15.1104 152.551 15.1104C155.476 15.1104 158.031 15.6567 160.216 16.7491C162.401 17.8416 164.004 19.3745 165.026 21.348L161.273 24.784C160.392 23.3743 159.212 22.3171 157.731 21.6123C156.251 20.8723 154.56 20.5022 152.657 20.5022C149.415 20.5022 146.913 21.6828 145.151 24.0439C143.389 26.405 142.508 29.7705 142.508 34.1403C142.508 38.6511 143.336 42.1223 144.992 44.5539C146.648 46.9503 149.009 48.1484 152.075 48.1484C154.789 48.1484 157.062 47.4965 158.894 46.1926V37.6291H150.648V32.8717H165.502ZM186.405 53.1702C183.057 53.1702 180.15 52.4125 177.683 50.8972C175.216 49.3466 173.331 47.1441 172.027 44.2896C170.723 41.4351 170.071 38.052 170.071 34.1403C170.071 30.2286 170.723 26.8455 172.027 23.991C173.331 21.1366 175.216 18.9516 177.683 17.4363C180.15 15.8857 183.057 15.1104 186.405 15.1104C189.753 15.1104 192.643 15.8857 195.074 17.4363C197.541 18.9516 199.427 21.1366 200.73 23.991C202.034 26.8455 202.686 30.2286 202.686 34.1403C202.686 38.052 202.034 41.4351 200.73 44.2896C199.427 47.1441 197.541 49.3466 195.074 50.8972C192.643 52.4125 189.753 53.1702 186.405 53.1702ZM186.405 47.8313C189.365 47.8313 191.691 46.6155 193.383 44.1839C195.11 41.7523 195.973 38.4044 195.973 34.1403C195.973 29.8762 195.11 26.5284 193.383 24.0968C191.691 21.6299 189.365 20.3965 186.405 20.3965C183.41 20.3965 181.049 21.6299 179.322 24.0968C177.63 26.5284 176.784 29.8762 176.784 34.1403C176.784 38.4044 177.63 41.7523 179.322 44.1839C181.049 46.6155 183.41 47.8313 186.405 47.8313Z" fill="#F1E0D4"/>
</svg>
