<svg width="30" height="21" viewBox="0 0 30 21" fill="none" xmlns="http://www.w3.org/2000/svg">
<path d="M29.0629 1.875H0.948852C0.700309 1.875 0.461945 1.77623 0.286199 1.60041C0.110452 1.4246 0.0117188 1.18614 0.0117188 0.9375C0.0117188 0.68886 0.110452 0.450403 0.286199 0.274588C0.461945 0.0987722 0.700309 0 0.948852 0H29.0629C29.3114 0 29.5498 0.0987722 29.7255 0.274588C29.9013 0.450403 30 0.68886 30 0.9375C30 1.18614 29.9013 1.4246 29.7255 1.60041C29.5498 1.77623 29.3114 1.875 29.0629 1.875ZM29.0629 11.25H0.948852C0.700309 11.25 0.461945 11.1512 0.286199 10.9754C0.110452 10.7996 0.0117188 10.5611 0.0117188 10.3125C0.0117188 10.0639 0.110452 9.8254 0.286199 9.64959C0.461945 9.47377 0.700309 9.375 0.948852 9.375H29.0629C29.3114 9.375 29.5498 9.47377 29.7255 9.64959C29.9013 9.8254 30 10.0639 30 10.3125C30 10.5611 29.9013 10.7996 29.7255 10.9754C29.5498 11.1512 29.3114 11.25 29.0629 11.25ZM29.0629 20.625H0.948852C0.700309 20.625 0.461945 20.5262 0.286199 20.3504C0.110452 20.1746 0.0117188 19.9361 0.0117188 19.6875C0.0117188 19.4389 0.110452 19.2004 0.286199 19.0246C0.461945 18.8488 0.700309 18.75 0.948852 18.75H29.0629C29.3114 18.75 29.5498 18.8488 29.7255 19.0246C29.9013 19.2004 30 19.4389 30 19.6875C30 19.9361 29.9013 20.1746 29.7255 20.3504C29.5498 20.5262 29.3114 20.625 29.0629 20.625Z" fill="black"/>
</svg>
