<svg width="25" height="26" viewBox="0 0 25 26" fill="none" xmlns="http://www.w3.org/2000/svg">
<path d="M18.1373 25.0111C16.4478 24.9938 15.088 24.5716 13.7688 23.9874C9.38283 22.0557 5.89955 19.0366 3.16847 15.121C2.0228 13.4727 1.09701 11.7202 0.477889 9.8116C0.101787 8.66064 -0.106516 7.48077 0.0554972 6.26041C0.148076 5.57794 0.38531 4.94173 0.853991 4.43855C1.57726 3.65197 2.30632 2.87117 3.10482 2.15978C4.18684 1.19968 5.39615 1.21125 6.44924 2.20026C7.5544 3.23554 8.62484 4.32288 9.66057 5.43334C10.5285 6.3703 10.5054 7.61958 9.66057 8.57389C9.12246 9.17539 8.53805 9.73641 7.96522 10.3032C7.83792 10.4305 7.80899 10.523 7.89 10.6907C8.49176 11.8937 9.33076 12.9174 10.2334 13.8891C11.1823 14.907 12.2239 15.8151 13.3984 16.5669C13.6878 16.752 14.006 16.8966 14.3011 17.0759C14.4515 17.1627 14.5325 17.1222 14.6483 17.0123C15.2269 16.4339 15.7939 15.844 16.4073 15.3003C17.3504 14.4675 18.606 14.4617 19.5202 15.3235C20.608 16.3472 21.6496 17.4114 22.6911 18.4756C23.7499 19.5513 23.7152 20.9741 22.5869 22.1193C22.0488 22.6687 21.5049 23.2182 20.9668 23.7676C20.1278 24.6352 19.1152 25.0632 18.1373 25.0111ZM17.877 23.6115C18.7622 23.6115 19.4334 23.3454 19.9831 22.7613C20.4692 22.2407 20.9784 21.7433 21.476 21.2344C21.5917 21.1187 21.7074 20.9973 21.8 20.87C22.1182 20.442 22.1067 20.014 21.7769 19.5976C21.6958 19.4935 21.5975 19.3952 21.5049 19.3026C20.6023 18.3946 19.6938 17.4923 18.7912 16.5901C18.1778 15.977 17.7092 15.977 17.0843 16.5901C16.5114 17.1569 15.9444 17.7353 15.3658 18.3021C14.926 18.7358 14.4863 18.7821 13.9481 18.516C12.4206 17.7642 11.0782 16.7578 9.87466 15.5664C8.53226 14.2419 7.30559 12.8307 6.5071 11.0956C6.16571 10.3553 6.23515 9.99667 6.81955 9.42409C7.40396 8.85729 7.99415 8.2847 8.55541 7.69477C8.98359 7.24364 8.96623 6.7983 8.56698 6.32403C8.50912 6.26041 8.45126 6.19679 8.3934 6.13317C7.46182 5.19043 6.53603 4.25926 5.59867 3.32808C5.03162 2.76706 4.51086 2.7555 3.93803 3.31073C3.35362 3.88332 2.78079 4.46747 2.20217 5.04584C1.71035 5.53745 1.46733 6.13317 1.43261 6.82721C1.38053 7.97817 1.69299 9.05393 2.09802 10.1123C3.2379 13.0736 5.04898 15.5895 7.26509 17.8278C9.56221 20.147 12.2296 21.9226 15.2963 23.0736C16.1585 23.3917 17.0553 23.571 17.877 23.6115Z" fill="#C09578"/>
<path d="M13.8725 -0.000244141C14.5842 0.190628 15.3133 0.341013 16.0076 0.578157C19.3926 1.7581 21.9211 3.95602 23.6223 7.10253C24.2761 8.31138 24.6927 9.607 24.9415 10.9605C25.0283 11.429 24.8142 11.776 24.4034 11.8628C24.0157 11.9437 23.6801 11.7066 23.5586 11.267C23.3272 10.4573 23.1594 9.61857 22.8469 8.83773C21.8575 6.32747 20.1621 4.39561 17.865 2.99587C16.6557 2.25552 15.348 1.7581 13.9535 1.49782C13.861 1.48046 13.7626 1.46311 13.67 1.43419C13.2881 1.33008 13.0625 1.00039 13.1203 0.635997C13.1724 0.277389 13.4501 0.057596 13.8725 -0.000244141Z" fill="#C09578"/>
<path d="M13.6583 4.50366C14.2948 4.7061 14.9602 4.8507 15.5678 5.12255C18.2294 6.31406 19.8496 8.3616 20.4282 11.2247C20.5092 11.6122 20.2719 11.9824 19.9074 12.0692C19.4966 12.1675 19.1552 11.9303 19.0163 11.4908C18.8312 10.8892 18.6981 10.253 18.4204 9.69192C17.4599 7.74849 15.9034 6.52807 13.7856 6.03643C13.6525 6.00751 13.5195 5.98437 13.3922 5.94388C13.045 5.83399 12.8598 5.51008 12.9177 5.15147C12.9813 4.81021 13.2822 4.56729 13.6583 4.50366Z" fill="#C09578"/>
</svg>
