<svg width="31" height="30" viewBox="0 0 31 30" fill="none" xmlns="http://www.w3.org/2000/svg">
<path d="M30.6168 28.1636L22.8742 20.5968C24.9017 18.4089 26.1475 15.5155 26.1475 12.3316C26.1465 5.52061 20.4979 0 13.5295 0C6.56107 0 0.912476 5.52061 0.912476 12.3316C0.912476 19.1426 6.56107 24.6632 13.5295 24.6632C16.5403 24.6632 19.3018 23.6289 21.4709 21.9094L29.2436 29.5061C29.6223 29.8766 30.2372 29.8766 30.6159 29.5061C30.706 29.4187 30.7776 29.3143 30.8265 29.1991C30.8754 29.0839 30.9007 28.9601 30.9007 28.8351C30.9008 28.71 30.8757 28.5862 30.827 28.4709C30.7782 28.3556 30.7068 28.2511 30.6168 28.1636ZM13.5295 22.7659C7.63345 22.7659 2.85378 18.0943 2.85378 12.3316C2.85378 6.56888 7.63345 1.89729 13.5295 1.89729C19.4256 1.89729 24.2052 6.56888 24.2052 12.3316C24.2052 18.0943 19.4256 22.7659 13.5295 22.7659Z" fill="black"/>
</svg>
