<svg width="19" height="19" viewBox="0 0 19 19" fill="none" xmlns="http://www.w3.org/2000/svg">
<path d="M13.2753 1.72338C15.3212 1.74713 17.0432 3.84211 17.0432 6.31932C17.0432 9.14458 14.4571 12.2724 12.0016 14.5491C10.5162 15.9263 8.24767 15.9277 6.76159 14.5512C4.30685 12.2775 1.72338 9.15178 1.72338 6.31932C1.72338 3.84211 3.44533 1.74713 5.49052 1.72338C8.02679 1.88974 10.7389 1.88816 13.2753 1.72338ZM13.1474 0.195962C13.1462 0.195982 13.1452 0.19489 13.1454 0.193684C13.1456 0.192492 13.1447 0.191406 13.1435 0.191407C12.3617 0.191743 11.62 0.362171 10.9519 0.667301C9.98724 1.10787 8.7793 1.10787 7.81463 0.667301C7.14652 0.362171 6.40485 0.191743 5.62305 0.191407C5.62184 0.191406 5.62091 0.192492 5.62111 0.193684C5.62131 0.19489 5.62035 0.195982 5.61913 0.195962C2.52189 0.14386 0.191406 3.04095 0.191406 6.31932C0.191406 12.2231 8.6791 18.1269 9.29998 18.5508C9.32554 18.5683 9.35231 18.5751 9.38327 18.5751C9.41423 18.5751 9.441 18.5683 9.46657 18.5508C10.0874 18.1269 18.5751 12.2231 18.5751 6.31932C18.5751 3.03636 16.2408 0.143859 13.1474 0.195962Z" fill="black"/>
</svg>
