<svg width="25" height="25" viewBox="0 0 25 25" fill="none" xmlns="http://www.w3.org/2000/svg">
<path d="M22.7501 2.96968C22.3029 2.59882 21.6882 2.50339 21.1496 2.72116L2.91113 10.0844C2.10884 10.4146 1.72618 11.3327 2.0564 12.1349C2.2272 12.5498 2.56717 12.8718 2.99066 13.0199L6.92525 14.3878L9.05756 21.4378C9.06185 21.4522 9.07502 21.4609 9.08055 21.4747C9.10261 21.531 9.13485 21.5827 9.17555 21.6273C9.19071 21.6453 9.20723 21.6621 9.22488 21.6777C9.278 21.7218 9.3397 21.7544 9.40605 21.7734C9.41618 21.7764 9.42295 21.7854 9.43326 21.7878L9.43923 21.7875L9.44221 21.7887C9.4762 21.7963 9.51087 21.8 9.5456 21.7997C9.59101 21.7981 9.63606 21.7902 9.6793 21.7764C9.68769 21.7741 9.69614 21.7747 9.70434 21.772C9.77821 21.7459 9.84494 21.7031 9.8993 21.6468C9.90564 21.6405 9.91527 21.6394 9.92136 21.6327L12.9891 18.2478L17.4645 21.7132C17.7364 21.9258 18.0717 22.0413 18.4168 22.0412C19.1634 22.0411 19.8078 21.5182 19.9616 20.7877L23.2829 4.48268C23.398 3.91866 23.1932 3.33712 22.7501 2.96968ZM10.1709 15.7248L9.45103 19.2233L7.94972 14.2579L15.3959 10.3805L10.3091 15.4673C10.2388 15.5377 10.1908 15.6273 10.1709 15.7248ZM18.9646 20.5829C18.9256 20.7703 18.7919 20.924 18.6117 20.9885C18.4356 21.0562 18.2368 21.026 18.0888 20.909L13.2397 17.1543C13.0297 16.9918 12.7301 17.0182 12.5518 17.2149L10.4185 19.5686L11.1372 16.0797L18.4547 8.76123C18.6535 8.56272 18.6538 8.24064 18.4553 8.04182C18.2983 7.88445 18.0573 7.84729 17.8602 7.95006L7.31089 13.4436L3.32367 12.0576C3.10634 11.9861 2.95853 11.7844 2.95586 11.5556C2.94536 11.3252 3.08174 11.1134 3.29584 11.0278L21.5314 3.66554C21.7218 3.58471 21.9417 3.61857 22.099 3.75302C22.2555 3.87939 22.3275 4.08324 22.2849 4.27989L18.9646 20.5829Z" fill="black"/>
</svg>
