<svg width="20" height="21" viewBox="0 0 20 21" fill="none" xmlns="http://www.w3.org/2000/svg">
<path d="M0 10.9692C0 16.4746 4.47902 20.9536 9.9844 20.9536C15.4894 20.9536 19.9688 16.4746 19.9688 10.9692C19.9688 5.46424 15.4894 0.984814 9.9844 0.984814C4.47902 0.984814 0 5.46344 0 10.9692ZM7.69924 6.51512C7.79818 6.5107 7.89791 6.50829 7.99765 6.50829C11.0345 6.50829 14.535 8.81919 14.535 13.0473C14.535 14.3451 14.1558 15.5532 13.5034 16.5699C13.5247 16.3901 13.5356 16.2071 13.5356 16.0217C13.5356 14.9447 13.168 13.9542 12.5519 13.1675C12.5429 13.6471 12.3841 14.1119 12.0979 14.4968C11.8117 14.8817 11.4123 15.1676 10.9557 15.3143C11.0215 14.97 11.0083 14.6152 10.917 14.2767C10.8119 14.7968 10.5301 15.2646 10.1194 15.6005C9.70863 15.9365 9.19429 16.12 8.66366 16.1199L8.6347 16.1195C8.81201 15.8005 8.91046 15.4438 8.92185 15.079C8.71192 15.3937 8.42751 15.6516 8.09389 15.8299C7.76027 16.0082 7.38778 16.1013 7.00951 16.101C6.58803 16.101 6.19309 15.988 5.85366 15.7901C6.56367 15.2131 7.14441 14.4932 7.55818 13.6773C7.97196 12.8613 8.20952 11.9674 8.25545 11.0537C8.08362 11.0934 7.90778 11.1133 7.73142 11.1128C7.2704 11.1131 6.81997 10.9747 6.43863 10.7156C6.0573 10.4566 5.7627 10.0888 5.59311 9.6601C5.42353 9.23141 5.3868 8.76163 5.4877 8.31179C5.5886 7.86196 5.82247 7.45287 6.15891 7.13769C6.05785 6.62273 5.86917 6.12894 5.60109 5.67779C6.13362 5.8498 6.58554 6.20939 6.87277 6.68967C6.81921 6.23403 6.69732 5.78906 6.51122 5.36973C6.97272 5.67718 7.37514 6.06516 7.69924 6.51512Z" fill="#F1E0D4"/>
</svg>
