<svg width="14" height="17" viewBox="0 0 14 17" fill="none" xmlns="http://www.w3.org/2000/svg">
<path d="M7.00001 16.3333C7.91668 16.3333 8.66668 15.5833 8.66668 14.6666H5.33335C5.33335 15.5833 6.07501 16.3333 7.00001 16.3333ZM12 11.3333V7.16665C12 4.60831 10.6333 2.46665 8.25001 1.89998V1.33331C8.25001 0.641646 7.69168 0.083313 7.00001 0.083313C6.30835 0.083313 5.75001 0.641646 5.75001 1.33331V1.89998C3.35835 2.46665 2.00001 4.59998 2.00001 7.16665V11.3333L0.925012 12.4083C0.400012 12.9333 0.766679 13.8333 1.50835 13.8333H12.4833C13.225 13.8333 13.6 12.9333 13.075 12.4083L12 11.3333Z" fill="#156677"/>
</svg>
