<svg width="19" height="18" viewBox="0 0 19 18" fill="#156677" xmlns="http://www.w3.org/2000/svg">
  <path fill-rule="evenodd" clip-rule="evenodd" d="M0.863636 3.09082C0.386667 3.09082 0 3.47749 0 3.95446V9.99991C0 10.4354 0.32433 10.8028 0.75652 10.8569L7.66561 11.7205C7.70114 11.7249 7.73692 11.7272 7.77273 11.7272H11.2273C11.2631 11.7272 11.2989 11.7249 11.3344 11.7205L18.2435 10.8569C18.6757 10.8028 19 10.4354 19 9.99991V3.95446C19 3.47749 18.6133 3.09082 18.1364 3.09082H0.863636ZM7.77273 7.84082C7.29575 7.84082 6.90909 8.22747 6.90909 8.70446V13.0226C6.90909 13.4996 7.29575 13.8863 7.77273 13.8863H11.2273C11.7043 13.8863 12.0909 13.4996 12.0909 13.0226V8.70446C12.0909 8.22747 11.7043 7.84082 11.2273 7.84082H7.77273Z" fill="#898989"/>
  <path fill-rule="evenodd" clip-rule="evenodd" d="M6.0451 2.65909C6.0451 1.46666 7.01176 0.5 8.20419 0.5H10.7951C11.9875 0.5 12.9542 1.46666 12.9542 2.65909V3.95455H11.2269V2.65909C11.2269 2.42061 11.0335 2.22727 10.7951 2.22727H8.20419C7.96574 2.22727 7.77237 2.42061 7.77237 2.65909V3.95455H6.0451V2.65909ZM0.863281 16.9091V10.4318H2.59055V16.0455H16.4087V10.4318H18.136V16.9091C18.136 17.3861 17.7494 17.7727 17.2724 17.7727H1.72692C1.24995 17.7727 0.863281 17.3861 0.863281 16.9091Z" fill="#156677"/>
</svg>
